<?xml version="1.0" encoding="UTF-8" standalone="no"?>
<!-- Created with Inkscape (http://www.inkscape.org/) -->

<svg
   width="210mm"
   height="297mm"
   viewBox="0 0 210 297"
   version="1.1"
   id="svg1"
   xml:space="preserve"
   inkscape:version="1.4.2 (f4327f4, 2025-05-13)"
   sodipodi:docname="drawing-2.svg"
   xmlns:inkscape="http://www.inkscape.org/namespaces/inkscape"
   xmlns:sodipodi="http://sodipodi.sourceforge.net/DTD/sodipodi-0.dtd"
   xmlns="http://www.w3.org/2000/svg"
   xmlns:svg="http://www.w3.org/2000/svg"><sodipodi:namedview
     id="namedview1"
     pagecolor="#ffffff"
     bordercolor="#111111"
     borderopacity="1"
     inkscape:showpageshadow="0"
     inkscape:pageopacity="0"
     inkscape:pagecheckerboard="1"
     inkscape:deskcolor="#d1d1d1"
     inkscape:document-units="mm"
     inkscape:zoom="0.65477694"
     inkscape:cx="396.31817"
     inkscape:cy="561.25984"
     inkscape:window-width="1920"
     inkscape:window-height="974"
     inkscape:window-x="-11"
     inkscape:window-y="-11"
     inkscape:window-maximized="1"
     inkscape:current-layer="layer1" /><defs
     id="defs1" /><g
     inkscape:label="Layer 1"
     inkscape:groupmode="layer"
     id="layer1"><path
       style="fill:#e7057c;stroke:none"
       d="m 67.506447,131.28568 c -2.708159,-1.20848 -5.943287,-2.48055 -8.515757,-0.0532 -1.830878,1.7276 -1.149024,4.73859 -0.08859,6.71357 0.312753,0.58248 0.668631,1.49161 1.309371,1.72445 1.266692,0.46029 4.089087,-1.09462 5.430712,-1.39143 -0.148798,-0.54216 -0.397002,-0.9916 -0.624416,-1.49858 -0.119916,-0.26734 -0.225798,-0.54644 -0.300162,-0.83255 -0.763272,-2.93674 2.978509,-0.29198 3.678412,-0.6803 0.94093,-0.52204 1.225811,-2.33971 2.078357,-3.07734 2.4032,-2.07928 3.400548,2.17697 3.401625,3.92415 l 6.680265,-1.49859 c -0.007,-2.71173 -0.820355,-5.76806 -3.1071,-7.24663 -3.158489,-2.04223 -9.050653,-0.0718 -9.942721,3.91645 m 65.249107,5.16179 c -1.55236,-1.90596 -3.10386,-4.04006 -5.28207,-5.17824 -1.50174,-0.7847 -3.01665,-0.98272 -4.66065,-0.98261 -2.11714,1.5e-4 -4.44033,0.31501 -6.21361,1.64916 -1.43351,1.07852 -2.18141,3.09175 -2.61753,4.84471 -1.29458,5.20341 0.32097,10.58697 5.10262,13.04862 2.31063,1.18954 5.70004,0.4189 7.9231,-0.70869 1.69769,-0.86111 3.73081,-2.33805 4.97136,-3.84796 0.35639,1.19455 0.65164,4.25282 1.63279,4.99066 0.89664,0.6743 3.51196,-0.10276 4.58141,-0.15533 0.48836,-0.024 1.1726,0.10541 1.34882,-0.53075 0.4978,-1.79713 0.0494,-4.4256 0.0494,-6.30269 0,-5.27594 -0.31071,-10.54354 -0.31071,-15.81839 -1.4453,-0.12226 -5.04016,-0.89196 -6.25424,0.17101 -0.49131,0.43017 -0.27067,1.72674 -0.27067,2.32663 v 6.49387 m -46.917215,13.98678 h 6.369555 c 0.181763,-4.53798 0.491288,-9.37512 3.883875,-12.62581 1.299079,-1.24473 4.171245,-2.71354 5.687475,-0.99057 0.9522,1.08204 0.89812,2.59659 1.01916,3.95884 0.28634,3.22271 -0.0264,6.42957 -0.0264,9.65754 h 6.36956 c 0.43632,-3.70028 1.03683,-9.03288 0.0888,-12.65471 -1.33274,-5.09165 -6.04474,-9.827 -11.274374,-8.17347 -2.14129,0.67704 -3.650929,2.53495 -5.437426,3.84423 7.49e-4,-1.20959 0.587759,-4.65458 -0.246819,-5.55675 -0.811907,-0.87766 -4.055824,-0.24708 -5.190606,-0.39005 -0.442886,-0.0558 -1.216859,-0.19078 -1.45981,0.33841 -0.273749,0.59627 -0.09374,1.62815 -0.09374,2.2782 0,1.83727 -0.02244,3.66513 0.104891,5.49481 0.340436,4.89212 0.205819,9.89884 0.205819,14.81933 m -56.08316,0 c 1.419672,0 4.642917,0.6506 5.842836,-0.17113 0.991803,-0.67921 1.625889,-3.4835 1.924915,-4.65764 2.230241,1.68493 3.638999,4.16681 6.369555,5.10449 1.468318,0.50423 3.274028,0.89045 4.816006,0.67516 6.329332,-0.88372 8.965138,-9.78131 6.326639,-15.43719 -1.435531,-3.0772 -5.491246,-5.28223 -8.656965,-5.32522 -1.517774,-0.0206 -3.17131,0.63753 -4.505295,1.37217 -2.582253,1.42207 -4.250323,3.75187 -6.2142,5.95116 0.12518,-3.1248 0.834542,-7.29752 0,-10.32358 h -4.349941 l -1.615165,0.17113 -0.249095,1.49396 v 3.99623 l 0.155355,10.15707 0.155355,6.99339 M 145.18395,127.95549 c 0,4.21864 0.14905,8.44964 0.15535,12.65471 0.004,2.77999 -0.33621,5.49412 1.34846,7.82594 3.2773,4.53625 12.91016,3.49555 12.28586,-3.65344 -0.0617,-0.70646 -0.68639,-0.67183 -1.20592,-0.67567 -1.24589,-0.009 -2.96576,-0.3255 -4.1615,0.0528 -0.48322,0.15287 -1.06223,1.59863 -1.58243,0.74518 -0.61612,-1.01082 -0.15956,-3.60582 -0.15956,-4.79434 0,-4.11232 -0.15535,-8.21999 -0.15535,-12.32169 l -6.52491,0.16651 m 18.33189,4.32924 c 0,5.09623 -1.41399,11.43526 0.98248,16.15077 2.59567,5.10747 9.68285,0.79925 10.8245,-3.32955 h 0.15536 c 0.16079,0.92833 0.48592,2.7698 -0.004,3.61747 -0.49002,0.8473 -2.1561,1.30686 -2.94744,1.81144 -2.69476,1.71823 -7.03477,5.12214 -6.24225,9.05741 0.90972,4.51716 6.21085,5.13419 9.50471,3.51314 3.16372,-1.557 4.81378,-5.42848 4.816,-9.00795 0.88537,0 3.08133,0.43056 3.79014,-0.17113 0.80994,-0.68754 0.10699,-3.68547 0.0943,-4.65764 -0.005,-0.4046 0.0892,-1.03973 -0.2497,-1.32745 -0.62058,-0.52681 -2.40106,-0.17114 -3.16871,-0.17114 l -0.15536,-10.32358 c -1.43614,-0.0661 -2.92197,-0.19987 -4.34994,-0.38056 -0.55666,-0.0704 -1.41703,-0.32464 -1.9206,0.0522 -0.52374,0.39189 -0.79151,1.40162 -1.06962,1.99349 -0.58846,1.25236 -1.31324,2.3941 -2.11863,3.49669 -0.35086,0.48033 -1.01988,1.55231 -1.70602,1.38322 -0.88451,-0.21798 -0.64217,-2.02806 -0.64217,-2.71529 0,-2.89429 0.15536,-5.76293 0.15536,-8.65849 l -5.74814,-0.33302 m -34.64417,8.49198 c -1.15625,0.94081 -2.19169,2.03648 -3.41781,2.88089 -0.56731,0.39072 -1.19074,0.77116 -1.86426,0.89397 -4.31065,0.78601 -5.00695,-8.40554 -0.77677,-8.40731 0.66461,-2.8e-4 1.41059,0.21056 2.01961,0.48719 0.73454,0.33364 1.41091,0.93263 1.97526,1.52929 0.72941,0.77119 1.62982,1.61817 2.06397,2.61597 m -83.425905,-4.28109 c 5.402394,-0.75395 5.921445,9.17482 0.776775,9.71908 -1.955852,0.20691 -3.684065,-2.15551 -4.816005,-3.53575 -0.377253,-0.46001 -1.137721,-1.06455 -1.126205,-1.73576 0.03828,-2.2311 3.425393,-4.20474 5.165435,-4.44757 m 25.167512,8.44379 -3.930503,-5.32122 -1.662277,0.13785 -4.03923,1.18715 c 1.377799,2.56693 3.616446,4.73943 5.394751,6.99339 0.624649,0.79173 1.391467,2.33368 2.379115,2.61122 0.862432,0.24236 3.693479,0.22468 4.438523,-0.28471 0.889446,-0.60811 1.618056,-2.83097 2.127744,-3.82509 1.599519,-3.11978 4.30729,-6.50884 5.079243,-9.99056 l -4.66065,0.79927 -1.918801,0.53087 -1.098874,2.33306 -2.109041,4.82877 m 104.553923,9.99057 c -0.26909,1.22741 -1.34375,2.75762 -2.64104,2.49764 0.55436,-1.14516 1.5479,-1.98554 2.64104,-2.49764 z"
       id="path1" /></g></svg>
