<?xml version="1.0" encoding="UTF-8"?>
<svg version="1.1" xmlns="http://www.w3.org/2000/svg" width="2160" height="1620">
<path d="M0 0 C712.8 0 1425.6 0 2160 0 C2160 534.6 2160 1069.2 2160 1620 C1447.2 1620 734.4 1620 0 1620 C0 1085.4 0 550.8 0 0 Z " fill="#FEFEFE" transform="translate(0,0)"/>
<path d="M0 0 C8.71844003 -0.02312611 17.43686956 -0.04091646 26.15533352 -0.05181217 C30.20325742 -0.05704041 34.25116041 -0.06413699 38.29907227 -0.07543945 C42.20235971 -0.08627043 46.10562699 -0.09227728 50.0089283 -0.09487724 C51.50133647 -0.09673111 52.99374348 -0.100351 54.48614311 -0.10573006 C56.56948139 -0.11294331 58.65273531 -0.11399083 60.73608398 -0.11352539 C61.92411118 -0.115746 63.11213837 -0.11796661 64.33616638 -0.12025452 C67 0 67 0 68 1 C68.09527037 2.34072817 68.1218877 3.68642503 68.12025452 5.03053284 C68.12231651 6.33258163 68.12231651 6.33258163 68.12442017 7.66093445 C68.11902725 9.10023064 68.11902725 9.10023064 68.11352539 10.56860352 C68.11367142 11.57336731 68.11381744 12.5781311 68.1139679 13.61334229 C68.1132683 16.95188517 68.10547374 20.29037305 68.09765625 23.62890625 C68.09579224 25.93676218 68.09436826 28.24461851 68.09336853 30.55247498 C68.08954204 36.64017826 68.07971065 42.72785786 68.06866455 48.81555176 C68.05845323 55.02221354 68.05387151 61.22887913 68.04882812 67.43554688 C68.0380885 79.62370835 68.02101052 91.81185221 68 104 C69.22759033 102.56672363 69.22759033 102.56672363 70.47998047 101.10449219 C71.56737448 99.83527932 72.65477729 98.56607399 73.7421875 97.296875 C74.27996826 96.66894043 74.81774902 96.04100586 75.37182617 95.39404297 C99.31610082 67.44992381 124.86582853 42.69454128 161.66015625 33.67578125 C163.97972664 33.10271479 163.97972664 33.10271479 165.81518555 31.97875977 C177.69752093 26.65567534 197.10698272 30.93866112 209 35 C209.63099609 35.20898926 210.26199219 35.41797852 210.91210938 35.63330078 C225.64716354 40.56592297 241.30224516 46.5902651 253 57 C254.53527344 58.21623047 254.53527344 58.21623047 256.1015625 59.45703125 C266.70631764 67.89871152 274.57109665 77.41977014 280 90 C280.32798584 90.73589355 280.65597168 91.47178711 280.99389648 92.22998047 C283.02000521 97.8082939 283.39818624 103.82153259 284.125 109.6875 C284.25757202 110.75535736 284.25757202 110.75535736 284.39282227 111.8447876 C288.01206146 141.61694219 289.31041332 173.7673155 270.5625 198.75 C269.38224101 200.17270496 268.19439262 201.58913964 267 203 C265.98486328 204.28777344 265.98486328 204.28777344 264.94921875 205.6015625 C248.89410349 225.84868832 230.71378732 237.66865913 205 241 C198.14099402 241.5201142 191.76866957 241.02261148 185.05859375 239.53515625 C182.31340332 239.05483557 179.69023668 238.82632531 176.9140625 238.6328125 C170.68039393 238.0941522 164.92222168 236.58532542 158.9375 234.8125 C157.92623047 234.53341797 156.91496094 234.25433594 155.87304688 233.96679688 C148.85870581 231.9207592 143.05825063 229.06437941 137 225 C136.03018188 224.35550903 136.03018188 224.35550903 135.04077148 223.69799805 C133.25137529 222.47644916 131.49613722 221.22003291 129.75 219.9375 C129.12158203 219.47706299 128.49316406 219.01662598 127.84570312 218.54223633 C121.33505401 213.66656665 115.49207579 208.14836449 109.63452148 202.52099609 C107.90522202 200.9118048 106.12268115 199.38533454 104.31640625 197.86328125 C101.79578824 195.72623555 99.55527406 193.54769811 97.4375 191 C95.35248111 188.50421678 93.1876295 186.15907536 90.88305664 183.8671875 C90.34306534 183.3294873 89.80307404 182.79178711 89.24671936 182.23779297 C88.83530197 181.82932129 88.42388458 181.42084961 88 181 C87.54149658 182.12905762 87.08299316 183.25811523 86.6105957 184.42138672 C84.89065589 188.65366118 83.16544414 192.88377043 81.4387207 197.11328125 C80.69544311 198.93594679 79.95355167 200.7591783 79.21313477 202.58300781 C77.13974192 207.68889499 75.04229764 212.78318225 72.89801025 217.85974121 C72.11854932 219.71745732 71.36255507 221.58498608 70.61083984 223.45410156 C70.02036865 224.81100098 70.02036865 224.81100098 69.41796875 226.1953125 C69.11012451 226.93023926 68.80228027 227.66516602 68.48510742 228.42236328 C66.08954216 230.96718372 63.31574912 230.85790185 60 231 C55.63840307 231.12609967 51.28120163 231.14014576 46.91796875 231.1328125 C45.66744217 231.13376923 44.41691559 231.13472595 43.12849426 231.13571167 C39.82327508 231.13656346 36.5181035 231.13255722 33.21289062 231.12695312 C30.50765085 231.12434441 27.80244419 231.12916437 25.09720898 231.13394356 C21.87079269 231.13841715 18.64438606 231.13529038 15.41796875 231.1328125 C14.20344528 231.13483673 12.98892181 231.13686096 11.7375946 231.13894653 C10.61915665 231.13579437 9.50071869 231.13264221 8.34838867 231.12939453 C7.36134445 231.12859894 6.37430023 231.12780334 5.35734558 231.12698364 C3 231 3 231 1 230 C0.9845388 228.81018272 0.9845388 228.81018272 0.96876526 227.59632874 C0.86785521 219.85615903 0.76511731 212.11601619 0.66066074 204.37589359 C0.60710506 200.40335756 0.55409383 196.4308164 0.50268555 192.45825195 C0.44252486 187.81719308 0.38013982 183.17616738 0.31640625 178.53515625 C0.30548447 177.73241461 0.29456268 176.92967297 0.28330994 176.10260582 C0.14747713 166.27014443 -0.02622739 156.4394239 -0.25390625 146.60864258 C-0.91999765 117.635356 -1.15861399 88.67887272 -1.13037109 59.69799805 C-1.12451909 53.62487373 -1.12807325 47.55179213 -1.13394356 41.47866917 C-1.1375357 36.74085661 -1.1364195 32.00305447 -1.13381577 27.26524162 C-1.13315059 25.0200697 -1.13396056 22.77489683 -1.13629532 20.52972603 C-1.13881576 17.44370041 -1.13499711 14.35774857 -1.12939453 11.27172852 C-1.13141876 10.35537125 -1.13344299 9.43901398 -1.13552856 8.49488831 C-1.11429717 2.22859434 -1.11429717 2.22859434 0 0 Z " fill="#010101" transform="translate(242,503)"/>
<path d="M0 0 C1.8708577 -0.00143509 1.8708577 -0.00143509 3.7795105 -0.00289917 C6.39304658 -0.00357538 9.0065844 -0.00176041 11.62011719 0.00244141 C14.97491998 0.00694945 18.32956861 0.00481267 21.6843586 -0.00113106 C24.89374199 -0.00559481 28.10311558 -0.00248087 31.3125 0 C32.51963654 -0.00202423 33.72677307 -0.00404846 34.9704895 -0.00613403 C36.62889359 -0.00140579 36.62889359 -0.00140579 38.32080078 0.00341797 C39.7866008 0.00461136 39.7866008 0.00461136 41.28201294 0.00582886 C43.4921875 0.1328125 43.4921875 0.1328125 44.4921875 1.1328125 C45.3944832 6.95249315 45.71140716 12.7117488 45.88110352 18.5925293 C45.91050176 19.51316414 45.9399 20.43379898 45.97018909 21.38233185 C46.06653308 24.44878152 46.15675568 27.5153699 46.24609375 30.58203125 C46.27833668 31.65850733 46.31057961 32.73498341 46.34379959 33.84407997 C46.59287428 42.16916456 46.82557943 50.49465778 47.0546875 58.8203125 C47.10605047 60.65905441 47.10605047 60.65905441 47.15845108 62.53494263 C48.71557512 118.40459194 48.82555239 174.24442785 48.4921875 230.1328125 C41.66481734 230.56708686 34.83698116 230.99339935 28.00878906 231.41455078 C25.69292325 231.55828752 23.37716388 231.70375124 21.06152344 231.85107422 C8.1904429 232.66872713 -4.60711654 233.39589316 -17.5078125 233.1328125 C-21.47014541 223.92404841 -24.26440395 214.41000192 -27.1328125 204.8203125 C-27.86824814 202.37054937 -28.60500618 199.92120312 -29.34432983 197.47261047 C-29.8008925 195.95966283 -30.2551452 194.44601549 -30.70669556 192.93156433 C-31.81388995 189.25407611 -33.01046678 185.67054018 -34.5078125 182.1328125 C-35.0440625 182.65488281 -35.5803125 183.17695312 -36.1328125 183.71484375 C-41.89944468 189.13054601 -47.92232228 193.6409823 -54.48046875 198.03979492 C-58.61007497 200.81207396 -62.5869794 203.69165692 -66.5078125 206.7578125 C-92.14864569 226.19746592 -125.82290862 236.27082173 -157.86328125 232.6953125 C-171.70484348 230.77296396 -182.10270429 224.06680085 -192.5078125 215.1328125 C-193.60904488 214.23627266 -194.71201739 213.34186744 -195.81640625 212.44921875 C-211.35586083 199.7360965 -225.79157355 183.76362388 -231.5078125 164.1328125 C-231.77239258 163.23232178 -232.03697266 162.33183105 -232.30957031 161.40405273 C-234.62021373 152.58655025 -234.97065714 144.21715608 -234.89892578 135.16796875 C-234.88287825 132.76764713 -234.89884114 130.36902012 -234.91796875 127.96875 C-234.93827373 114.28055769 -232.74273166 101.63593012 -228.3203125 88.6328125 C-228.01988037 87.74553467 -227.71944824 86.85825684 -227.40991211 85.9440918 C-220.33764113 65.77893118 -208.46796509 48.56030432 -188.86328125 38.95703125 C-171.74613456 31.3101277 -151.46161059 29.75864812 -132.91577148 29.81713867 C-130.80987006 29.82032832 -128.70534215 29.79659035 -126.59960938 29.77148438 C-117.90117714 29.7307279 -109.90087375 30.70634036 -101.5078125 33.1328125 C-100.80019775 33.33688721 -100.09258301 33.54096191 -99.36352539 33.7512207 C-97.68826983 34.26967108 -96.03411015 34.85498373 -94.3828125 35.4453125 C-93.32835937 35.81269531 -92.27390625 36.18007813 -91.1875 36.55859375 C-81.78643529 40.34960529 -73.70262371 45.92629332 -65.7578125 52.1328125 C-64.86449219 52.81859375 -63.97117187 53.504375 -63.05078125 54.2109375 C-49.50944379 64.66110072 -49.50944379 64.66110072 -45.2578125 69.6953125 C-44.40509766 70.69884766 -44.40509766 70.69884766 -43.53515625 71.72265625 C-42.86613281 72.51800781 -42.19710938 73.31335938 -41.5078125 74.1328125 C-40.59328253 75.19733217 -39.67785212 76.26107866 -38.76171875 77.32421875 C-37.78090144 78.46845131 -36.8004333 79.61298327 -35.8203125 80.7578125 C-35.12470215 81.56520874 -35.12470215 81.56520874 -34.41503906 82.38891602 C-33.74359863 83.17866821 -33.74359863 83.17866821 -33.05859375 83.984375 C-32.66325439 84.44666504 -32.26791504 84.90895508 -31.8605957 85.38525391 C-29.93447361 87.87346577 -28.24527221 90.51065748 -26.5078125 93.1328125 C-26.49750504 91.99497818 -26.48719757 90.85714386 -26.47657776 89.68482971 C-26.37902113 78.98644839 -26.27630436 68.28812755 -26.16847324 57.5898447 C-26.11319751 52.08913282 -26.05977021 46.58841568 -26.01049805 41.08764648 C-25.96292292 35.78379967 -25.91058287 30.48001974 -25.85487175 25.17625237 C-25.83441704 23.14797559 -25.81570924 21.11968045 -25.79873848 19.09137154 C-25.77476318 16.26079766 -25.74469963 13.43035145 -25.71313477 10.59985352 C-25.7073793 9.75253159 -25.70162384 8.90520966 -25.69569397 8.0322113 C-25.62186466 2.24686466 -25.62186466 2.24686466 -24.5078125 1.1328125 C-16.40835218 -0.11158095 -8.17170528 -0.01393673 0 0 Z " fill="#010101" transform="translate(1389.5078125,499.8671875)"/>
<path d="M0 0 C4.33873618 0.13240473 8.67744364 0.265708 13.01612854 0.39978027 C14.48660061 0.44510115 15.95707976 0.49019276 17.42756653 0.53503418 C26.26658154 0.80474948 35.10316763 1.10130195 43.9375 1.5 C45.13131287 1.55256958 45.13131287 1.55256958 46.34924316 1.60620117 C50.17581142 1.79319942 53.96480281 2.08322942 57.77172852 2.51757812 C58.96585106 2.65299011 58.96585106 2.65299011 60.18409729 2.7911377 C60.78334518 2.86006226 61.38259308 2.92898682 62 3 C62.03132695 9.06248792 62.0493871 15.12494676 62.0625 21.1875 C62.06510834 22.13429626 62.06771667 23.08109253 62.07040405 24.05657959 C62.09770549 36.40067277 61.99483484 48.73705011 61.71814156 61.0779438 C61.6719565 63.14868979 61.62769127 65.2194686 61.58396912 67.29026794 C61.34304336 78.61321435 61.34304336 78.61321435 61.20120239 83.68051147 C61.09555433 87.52900148 61.00918859 91.37753555 60.92578125 95.2265625 C60.86973724 96.94135048 60.86973724 96.94135048 60.81256104 98.69078064 C60.68571644 105.45812907 61.07471491 111.78370173 64 118 C66.52241456 120.34089931 66.52241456 120.34089931 70 120 C78.81364474 116.85595129 83.647858 108.09727115 88.72167969 100.79199219 C90.43379029 98.39189826 92.29703153 96.13614856 94.1875 93.875 C101.70966726 84.54506138 107.02255036 74.28136493 111.9453125 63.43359375 C114.47627797 57.88048169 117.24860057 52.44626325 120 47 C143.05355874 48.17267874 166.01988364 49.81766523 189 52 C189.17355077 61.43738118 189.33982804 70.87488282 189.5 80.3125 C189.51187725 81.01208076 189.5237545 81.71166153 189.53599167 82.43244171 C189.9555824 107.29210715 190.08817188 132.1355309 190 157 C202.21 157 214.42 157 227 157 C227.60663333 161.24643332 228.13035578 165.06694031 228.28125 169.28515625 C228.33732422 170.69958008 228.33732422 170.69958008 228.39453125 172.14257812 C228.46498466 174.09309387 228.5352966 176.04361474 228.60546875 177.99414062 C228.64285156 178.93580078 228.68023438 179.87746094 228.71875 180.84765625 C228.74904297 181.69336182 228.77933594 182.53906738 228.81054688 183.41040039 C228.96202191 186.06636599 228.96202191 186.06636599 229.50708008 188.9206543 C230.39914867 194.49354245 230.18454513 200.11802128 230.1875 205.75 C230.19974609 206.99394531 230.21199219 208.23789062 230.22460938 209.51953125 C230.22654297 210.70417969 230.22847656 211.88882813 230.23046875 213.109375 C230.23457764 214.19186523 230.23868652 215.27435547 230.24291992 216.38964844 C230 219 230 219 228 221 C226.16500854 221.24050903 226.16500854 221.24050903 223.91748047 221.22705078 C222.65639969 221.22682419 222.65639969 221.22682419 221.36984253 221.22659302 C220.46146637 221.21627045 219.55309021 221.20594788 218.6171875 221.1953125 C217.68778351 221.1924826 216.75837952 221.18965271 215.80081177 221.18673706 C212.8254115 221.17552069 209.85030965 221.1504136 206.875 221.125 C204.86068142 221.11497208 202.84635814 221.1058459 200.83203125 221.09765625 C195.88790544 221.07557661 190.94400335 221.04103693 186 221 C186.01812744 221.7019751 186.03625488 222.4039502 186.05493164 223.12719727 C186.43199177 248.51519472 174.88362292 273.76032127 159 293 C158.44828125 293.66902344 157.8965625 294.33804687 157.328125 295.02734375 C151.65147646 301.24532218 144.10392333 305.60044491 137 310 C136.16597656 310.51949219 135.33195312 311.03898437 134.47265625 311.57421875 C132.02743953 312.93649239 129.61352867 313.99341399 127 315 C126.41492676 315.22558594 125.82985352 315.45117188 125.22705078 315.68359375 C114.37558923 319.65789791 103.60259793 320.50129483 92.125 320.5625 C90.83053955 320.57708252 89.5360791 320.59166504 88.20239258 320.60668945 C75.43586091 320.47204722 64.43714002 317.42053231 54 310 C53.03191406 309.32453125 52.06382813 308.6490625 51.06640625 307.953125 C41.06446993 300.35929819 32.24212586 289.02469073 29.33203125 276.546875 C26.93611076 258.16875551 33.82932717 243.67881492 44.12890625 228.95703125 C52.55359943 218.20507476 63.20206256 209.27790961 74 201 C75.18113547 200.06528848 76.36211324 199.13037767 77.54296875 198.1953125 C93.92797016 185.38240649 112.2188464 176.755162 131 168 C131.09663612 158.81956868 131.08639873 149.66872483 130.5625 140.5 C130.52326416 139.7769165 130.48402832 139.05383301 130.44360352 138.30883789 C130.24566064 134.52866933 130.24566064 134.52866933 129 131 C128.57332031 131.76441406 128.14664062 132.52882813 127.70703125 133.31640625 C122.50609679 142.22769808 116.33535457 149.75330498 109.43017578 157.39794922 C107.69075644 159.34640768 106.03707592 161.36048389 104.375 163.375 C96.60842429 172.1314334 87.78923939 177.6658611 77 182 C76.03707031 182.41378906 75.07414062 182.82757812 74.08203125 183.25390625 C67.79970975 185.79696164 62.72032718 186.47312648 56 186 C54.9171875 185.96777344 53.834375 185.93554688 52.71875 185.90234375 C38.51550977 185.28959334 26.70784039 181.44547363 16 172 C13.44575637 168.86409693 11.69037568 165.66248064 10 162 C9.34644531 160.70255859 9.34644531 160.70255859 8.6796875 159.37890625 C4.05323209 149.8351105 1.20203098 139.90533025 -0.6875 129.5 C-0.80689941 128.8488623 -0.92629883 128.19772461 -1.04931641 127.52685547 C-3.16107093 115.03663732 -3.23457728 102.38076505 -3.25 89.75 C-3.25233643 88.86911713 -3.25467285 87.98823425 -3.25708008 87.08065796 C-3.2852871 58.03416109 -1.51617353 28.99844383 0 0 Z " fill="#010101" transform="translate(1698,550)"/>
<path d="M0 0 C19.65169829 -0.2062088 39.24972047 -0.215725 58.875 0.9375 C59.63873932 0.98106628 60.40247864 1.02463257 61.18936157 1.06951904 C73.80381757 1.80381757 73.80381757 1.80381757 75 3 C76.41848708 15.38578558 76.30873773 27.98864825 76.5625 40.4375 C76.60581289 42.44076187 76.64943064 44.44401717 76.69335938 46.44726562 C76.79908035 51.2981087 76.90070069 56.1490214 77 61 C77.71430176 60.27119629 78.42860352 59.54239258 79.16455078 58.79150391 C84.18804125 53.69626653 89.15758037 48.70122179 94.875 44.375 C95.45813965 43.92608398 96.0412793 43.47716797 96.64208984 43.01464844 C119.51593505 25.56170103 139.31945134 15.42459141 168.5625 18.6875 C185.9510569 21.33041483 203.21687728 29.04902579 217 40 C218.19109375 40.928125 218.19109375 40.928125 219.40625 41.875 C240.6781814 59.64648699 255.67125292 88.87982364 260 116 C260.24352725 119.20598373 260.25873949 122.3875738 260.23046875 125.6015625 C260.23001053 126.48170013 260.22955231 127.36183777 260.2290802 128.26864624 C260.22608138 130.11905273 260.21826712 131.96945723 260.20581055 133.81982422 C260.18767999 136.5974258 260.18530067 139.37468937 260.18554688 142.15234375 C260.1678368 151.23593698 259.92346578 160.24237687 259.28295898 169.30615234 C258.52953129 180.85026855 258.31977005 192.43948154 257.9375 204 C257.628125 213.24 257.31875 222.48 257 232 C222.35 231.505 222.35 231.505 187 231 C187 196 187 196 188 186 C188.10727682 183.20933973 188.1855624 180.44241787 188.203125 177.65234375 C188.21004868 176.88980789 188.21697235 176.12727203 188.22410583 175.34162903 C188.24133842 172.87353313 188.24770129 170.40565336 188.25 167.9375 C188.25133942 167.08861206 188.25267883 166.23972412 188.25405884 165.3651123 C188.24990015 153.10873166 187.79864542 140.9564884 186.6875 128.75 C186.62864624 128.07589081 186.56979248 127.40178162 186.50915527 126.70724487 C185.38511446 114.18043021 183.86607961 100.27612364 174.125 91.265625 C165.02875458 85.48301184 151.0808261 86.71176567 140.87890625 88.69921875 C128.60891891 91.88430856 120.02189805 98.33380402 111 107 C109.6696875 108.2684375 109.6696875 108.2684375 108.3125 109.5625 C107.549375 110.366875 106.78625 111.17125 106 112 C105.22269531 112.78503906 105.22269531 112.78503906 104.4296875 113.5859375 C99.19488499 119.14938232 95.56140687 125.4784025 91.98193359 132.16650391 C91.04024607 133.92485132 90.07721257 135.67171635 89.11328125 137.41796875 C84.38698238 146.32719591 81.4881841 155.26352412 79 165 C78.70222656 166.10472656 78.40445313 167.20945312 78.09765625 168.34765625 C73.83473336 185.80231068 73.80116402 204.3099836 73.34130859 222.17431641 C73.3098877 223.31175293 73.2784668 224.44918945 73.24609375 225.62109375 C73.21020142 227.14367798 73.21020142 227.14367798 73.17358398 228.69702148 C73 231 73 231 72 232 C69.88862099 232.09948193 67.77387714 232.12799638 65.66015625 232.12939453 C64.66748245 232.13202301 64.66748245 232.13202301 63.65475464 232.13470459 C61.4573101 232.13912217 59.25994542 232.13618547 57.0625 232.1328125 C55.54174789 232.13348557 54.02099588 232.13445561 52.50024414 232.13571167 C49.30907164 232.13718851 46.11792708 232.13503452 42.92675781 232.13037109 C38.8273547 232.1246738 34.72801704 232.12795288 30.62861633 232.13394356 C27.48717756 232.13754954 24.34575442 232.13641042 21.20431519 232.13381577 C19.69237256 232.1331466 18.18042854 232.13397457 16.66848755 232.13629532 C14.55890113 232.13882245 12.44942213 232.13498044 10.33984375 232.12939453 C9.13706787 232.12859894 7.93429199 232.12780334 6.69506836 232.12698364 C4 232 4 232 3 231 C2.88185423 229.29956004 2.83263244 227.59428887 2.81054688 225.88989258 C2.79378906 224.79004028 2.77703125 223.69018799 2.75976562 222.55700684 C2.74623047 221.34838989 2.73269531 220.13977295 2.71875 218.89453125 C2.69167969 217.01864319 2.69167969 217.01864319 2.6640625 215.1048584 C2.62549625 212.41045708 2.58859992 209.71609205 2.55444336 207.02163696 C2.47403733 200.7131218 2.37752457 194.40484546 2.28175354 188.09654808 C2.26054395 186.69617135 2.23949762 185.29579214 2.21861267 183.89541054 C2.0416699 172.03267053 1.8118593 160.17246503 1.5 148.3125 C1.48203369 147.58850006 1.46406738 146.86450012 1.44555664 146.11856079 C1.25196938 138.38164981 0.93624843 130.66624413 0.46875 122.94140625 C-0.0895151 113.58203189 -0.05921615 104.2742208 0.0390625 94.8984375 C0.08233144 87.88886852 -0.08184235 80.95954959 -0.4921875 73.96484375 C-1.20904028 61.32485754 -1.15195108 48.67736638 -1.13037109 36.02124023 C-1.12457634 32.57387937 -1.12803175 29.12659473 -1.13394356 25.67923641 C-1.1384095 22.35776592 -1.13529495 19.0363164 -1.1328125 15.71484375 C-1.13483673 14.48064194 -1.13686096 13.24644012 -1.13894653 11.97483826 C-1.13579437 10.83837357 -1.13264221 9.70190887 -1.12939453 8.53100586 C-1.12820114 7.03264442 -1.12820114 7.03264442 -1.12698364 5.50401306 C-1 3 -1 3 0 0 Z " fill="#010101" transform="translate(851,502)"/>
<path d="M0 0 C3.67696093 0.00544295 7.3538041 -0.00001899 11.03076172 -0.00634766 C13.36539741 -0.00568824 15.70003302 -0.00440994 18.03466797 -0.00244141 C19.68589661 -0.00547775 19.68589661 -0.00547775 21.3704834 -0.00857544 C22.37663696 -0.00542328 23.38279053 -0.00227112 24.41943359 0.00097656 C25.30747681 0.00177216 26.19552002 0.00256775 27.11047363 0.00338745 C29.12841797 0.13037109 29.12841797 0.13037109 30.12841797 1.13037109 C30.36614596 3.43570105 30.53716705 5.71464645 30.66577148 8.02709961 C30.70900732 8.77120779 30.75224316 9.51531597 30.79678917 10.28197289 C30.93888336 12.83650553 31.06877774 15.3914034 31.19482422 17.94677734 C31.23980104 18.85017916 31.28477787 19.75358097 31.33111763 20.6843586 C32.20782798 39.0478761 32.2738605 57.40349009 32.21826172 75.78271484 C32.2162666 76.49566601 32.21427148 77.20861718 32.2122159 77.94317293 C32.17638357 90.51084345 32.11341307 103.07837724 32.03900146 115.64587402 C31.99049594 123.86821901 31.94853205 132.09047545 31.92749316 140.31294256 C31.91603544 144.50379101 31.89077306 148.69424936 31.85474575 152.88495529 C31.83112856 156.06690311 31.82687222 159.2488874 31.81958008 162.4309082 C31.80565216 163.57908524 31.79172424 164.72726227 31.77737427 165.91023254 C31.77860794 166.955914 31.77984161 168.00159546 31.78111267 169.07896423 C31.77306815 170.44204916 31.77306815 170.44204916 31.76486111 171.83267117 C31.9553655 174.19503837 31.9553655 174.19503837 33.49387455 175.95389652 C35.13178613 177.39084303 35.13178613 177.39084303 37.62841797 177.00537109 C40.34486252 176.0546155 41.29212717 175.29421647 43.12841797 173.13037109 C44.07966541 171.13234059 44.07966541 171.13234059 44.75341797 169.00537109 C46.04508464 165.21370443 46.04508464 165.21370443 47.12841797 164.13037109 C48.95339338 164.02608508 50.78241128 163.99182746 52.61035156 163.98510742 C53.78181732 163.97872757 54.95328308 163.97234772 56.1602478 163.96577454 C58.0742186 163.9641053 58.0742186 163.9641053 60.02685547 163.96240234 C61.97841049 163.95740974 61.97841049 163.95740974 63.96939087 163.95231628 C66.72846302 163.94631839 69.48750382 163.944477 72.24658203 163.94506836 C75.78310486 163.9451699 79.31942654 163.93152932 82.85590172 163.91429615 C86.22538951 163.90050409 89.59483978 163.90108733 92.96435547 163.89990234 C94.23628754 163.89271683 95.5082196 163.88553131 96.81869507 163.87812805 C97.99646515 163.88120468 99.17423523 163.88428131 100.38769531 163.88745117 C101.42614594 163.88602615 102.46459656 163.88460114 103.53451538 163.88313293 C106.12841797 164.13037109 106.12841797 164.13037109 109.12841797 166.13037109 C111.11423949 182.58432087 102.26476582 203.00491362 93.12841797 216.13037109 C82.10711605 229.4708669 68.68558537 233.67948718 52.12841797 236.13037109 C32.7491814 237.32317179 10.6391767 238.0208352 -5.87158203 226.13037109 C-6.60119141 225.61732422 -7.33080078 225.10427734 -8.08251953 224.57568359 C-22.25885972 214.07648284 -33.25778265 199.97176924 -38.87158203 183.13037109 C-39.01308384 180.6870943 -39.10476441 178.26696798 -39.15283203 175.82177734 C-39.17124146 175.09981674 -39.18965088 174.37785614 -39.20861816 173.63401794 C-39.26728774 171.32038439 -39.3200089 169.00667296 -39.37158203 166.69287109 C-39.42350945 164.41121917 -39.47692113 162.12964483 -39.5345459 159.84812927 C-39.57025299 158.43110676 -39.60285584 157.0140005 -39.63146973 155.59681702 C-39.72855214 151.7053036 -39.98688342 147.87040054 -40.36938477 143.99633789 C-41.20963094 134.27924829 -41.10986249 124.51735721 -41.18798828 114.77099609 C-41.20863641 112.57793864 -41.22963442 110.38488445 -41.2509613 108.1918335 C-41.29475844 103.59584506 -41.33567416 98.99984363 -41.37426758 94.40380859 C-41.42292919 88.61287598 -41.47663802 82.82200543 -41.53222084 77.03113556 C-41.6659881 63.06435187 -41.78105776 49.09750375 -41.87158203 35.13037109 C-41.87747093 34.22733246 -41.88335983 33.32429382 -41.88942719 32.39389038 C-41.9194461 27.61776296 -41.94324379 22.84169074 -41.95542717 18.06548309 C-41.96124739 16.05147743 -41.97146753 14.03748597 -41.98182678 12.02349854 C-41.983209 10.27380768 -41.983209 10.27380768 -41.98461914 8.48876953 C-41.98707138 7.49117615 -41.98952362 6.49358276 -41.99205017 5.46575928 C-41.87158203 3.13037109 -41.87158203 3.13037109 -40.87158203 1.13037109 C-27.2492469 0.0692985 -13.65879826 -0.02417486 0 0 Z " fill="#010101" transform="translate(1539.87158203125,504.86962890625)"/>
<path d="M0 0 C9.16329743 0.14313041 15.7753102 2.16217166 23.85253906 6.45751953 C24.78324219 6.92544922 25.71394531 7.39337891 26.67285156 7.87548828 C43.82357732 17.2375817 51.45828551 33.85992926 57.08544922 51.71435547 C59.80953023 61.45584949 59.94480153 71.40603626 59.85253906 81.45751953 C48.68706257 83.9457756 37.52005587 86.42708095 26.35186768 88.90313721 C23.91950948 89.44266465 21.48732457 89.98296695 19.05517578 90.5234375 C15.3332839 91.35018605 11.61065966 92.17355601 7.88745117 92.99435425 C6.49234936 93.30243044 5.09749059 93.61160934 3.70288086 93.92190552 C1.76253677 94.3534007 -0.1787683 94.7805678 -2.12011719 95.20751953 C-3.21590088 95.44986328 -4.31168457 95.69220703 -5.44067383 95.94189453 C-8.14746094 96.45751953 -8.14746094 96.45751953 -11.14746094 96.45751953 C-12.2721945 94.20805241 -12.48467921 92.47832796 -12.79589844 89.98486328 C-12.97378906 88.63424805 -12.97378906 88.63424805 -13.15527344 87.25634766 C-13.39648703 85.37667787 -13.63359495 83.49647578 -13.86621094 81.61572266 C-15.0304068 72.87806115 -16.88382346 62.49675504 -23.52246094 56.20751953 C-30.43405765 51.59978839 -36.79983476 51.8680109 -44.83496094 52.95751953 C-57.28807269 58.59666448 -65.74459407 78.57718243 -71.14746094 90.45751953 C-76.22107101 89.16640904 -80.64527049 87.36115949 -85.27246094 84.89501953 C-92.93563989 80.81408584 -99.4925941 79.76980148 -108.14746094 80.45751953 C-111.37189766 81.25090914 -111.37189766 81.25090914 -113.14746094 83.45751953 C-113.6275341 88.88707942 -112.50452077 93.21890975 -110.52246094 98.20751953 C-110.2561084 98.89910156 -109.98975586 99.59068359 -109.71533203 100.30322266 C-107.34600901 106.29384842 -104.45208391 111.92637754 -101.14746094 117.45751953 C-107.009009 119.50957825 -112.85235284 121.17564412 -118.89746094 122.58251953 C-125.25911213 124.10103526 -131.52196063 125.84119207 -137.75683594 127.81689453 C-138.40892029 128.02317474 -139.06100464 128.22945496 -139.73284912 128.44198608 C-142.99351165 129.47771352 -146.24822083 130.5294111 -149.49804688 131.59863281 C-150.69204102 131.9826123 -151.88603516 132.3665918 -153.11621094 132.76220703 C-154.71625977 133.28790283 -154.71625977 133.28790283 -156.34863281 133.82421875 C-159.1857411 134.46618132 -160.52003091 134.65196969 -163.14746094 133.45751953 C-164.484375 132.03735352 -164.484375 132.03735352 -165.66308594 130.20361328 C-166.10587891 129.52169922 -166.54867187 128.83978516 -167.00488281 128.13720703 C-167.46443359 127.39728516 -167.92398438 126.65736328 -168.39746094 125.89501953 C-168.87763672 125.13576172 -169.3578125 124.37650391 -169.85253906 123.59423828 C-181.39110661 105.03419888 -188.86709761 86.8757254 -185.75683594 64.66845703 C-182.52989564 53.29142393 -174.165091 46.04630866 -164.41699219 40.23486328 C-159.69820863 37.6696942 -155.23770449 36.14327958 -150.02246094 34.89501953 C-147.00914119 34.16986902 -144.08857655 33.4378914 -141.14746094 32.45751953 C-119.72507315 31.20081738 -99.96260852 36.58075448 -82.14746094 48.45751953 C-81.96570313 47.36697266 -81.96570313 47.36697266 -81.78027344 46.25439453 C-78.71169115 32.6920185 -67.66818612 21.42070201 -56.63574219 13.69970703 C-44.13870222 5.89150937 -30.5423879 2.68291051 -15.90527344 1.66845703 C-2.11839283 0.01403136 -2.11839283 0.01403136 0 0 Z " fill="#010101" transform="translate(736.1474609375,492.54248046875)"/>
<path d="M0 0 C-1.88090577 8.2331505 -5.56014293 15.25639944 -9.67773438 22.5402832 C-10.74329422 24.4256351 -11.79467817 26.31832387 -12.84375 28.21289062 C-16.47238502 34.73020184 -20.28157519 41.09242514 -24.33398438 47.35717773 C-27.20009418 51.90372502 -29.77175509 56.61224094 -32.375 61.3125 C-35.91396531 67.64843832 -39.47734153 73.89609041 -43.5 79.9375 C-48.24010888 87.11313444 -52.2178306 94.6661186 -56.26245117 102.25 C-59.12406614 107.59852974 -62.04354465 112.82814853 -65.3125 117.9375 C-69.31085631 124.22427726 -72.35981333 130.87015939 -75.43359375 137.640625 C-77 141 -77 141 -78 142 C-79.53444378 142.1591205 -81.07588218 142.25148365 -82.6171875 142.31640625 C-84.09711182 142.38093994 -84.09711182 142.38093994 -85.60693359 142.44677734 C-90.18131943 142.60875694 -94.75651526 142.73532231 -99.33203125 142.86083984 C-102.99121591 142.99966674 -106.62954545 143.25076344 -110.28125 143.51953125 C-128.80866665 144.61198249 -128.80866665 144.61198249 -133.86328125 140.41796875 C-136.80415526 137.27345551 -138.8490811 133.71369591 -141 130 C-142.35202442 128.39944168 -143.74473685 126.83177332 -145.1875 125.3125 C-147.8843059 122.30874059 -150.43743241 119.23187702 -152.9375 116.0625 C-156.36136567 111.72917002 -159.99374688 107.64493267 -163.71484375 103.56640625 C-166.05702858 100.93595251 -168.28536726 98.23844153 -170.5 95.5 C-173.4081338 91.9052235 -176.38541332 88.41739372 -179.5 85 C-183.33825067 80.78389046 -186.95501164 76.42899877 -190.5390625 71.99609375 C-193.36736818 68.55274382 -196.27303948 65.18283622 -199.1875 61.8125 C-211 48.10265544 -211 48.10265544 -211 45 C-196.03320245 40.76336244 -181.04140822 36.65811363 -165.9375 32.9375 C-164.70233643 32.62675537 -163.46717285 32.31601074 -162.19458008 31.99584961 C-161.04626709 31.71749268 -159.8979541 31.43913574 -158.71484375 31.15234375 C-157.20071899 30.7809729 -157.20071899 30.7809729 -155.65600586 30.40209961 C-152.95754004 29.99357188 -151.49611629 29.93354784 -149 31 C-147.57128906 32.42358398 -147.57128906 32.42358398 -146.265625 34.24609375 C-145.77819824 34.91326416 -145.29077148 35.58043457 -144.78857422 36.26782227 C-144.28084473 36.98381592 -143.77311523 37.69980957 -143.25 38.4375 C-142.17585284 39.9150621 -141.10033376 41.39162783 -140.0234375 42.8671875 C-139.50362305 43.58358398 -138.98380859 44.29998047 -138.44824219 45.03808594 C-136.66952849 47.44768528 -134.78826542 49.75877224 -132.875 52.0625 C-129.22433152 56.56549398 -126.04882406 61.31699367 -122.87304688 66.15869141 C-118.43786228 72.90915204 -113.73683045 79.45914263 -109 86 C-105.93819347 83.39145184 -104.40432271 80.18121028 -102.6875 76.625 C-102.35411621 75.944375 -102.02073242 75.26375 -101.67724609 74.5625 C-100.90062524 72.97307289 -100.12711367 71.38212446 -99.35595703 69.79003906 C-97.82137653 66.63246146 -96.26780409 63.4845146 -94.71484375 60.3359375 C-93.51554155 57.89193496 -92.32001883 55.4460991 -91.125 53 C-90.82182861 52.38177368 -90.51865723 51.76354736 -90.20629883 51.12658691 C-86.95015758 44.46857805 -83.85669478 37.82063618 -81.19140625 30.8984375 C-80.55017822 29.24521484 -80.55017822 29.24521484 -79.89599609 27.55859375 C-79.11149318 25.49194366 -78.35602399 23.41395029 -77.63525391 21.32421875 C-75.13313459 14.71945282 -75.13313459 14.71945282 -72.07470703 12.77758789 C-69.72135287 11.94593778 -67.45581438 11.44128858 -65 11 C-63.79089966 10.71334473 -63.79089966 10.71334473 -62.55737305 10.42089844 C-59.88064441 9.78864515 -57.19602106 9.23146244 -54.5 8.6875 C-53.49259766 8.48165283 -52.48519531 8.27580566 -51.44726562 8.0637207 C-42.87868359 6.33550085 -34.29310625 4.69257705 -25.69897461 3.09658813 C-24.24496059 2.82608938 -22.79133741 2.55348034 -21.33813477 2.27865601 C-7.14513942 -0.39592912 -7.14513942 -0.39592912 0 0 Z " fill="#010101" transform="translate(795,592)"/>
<path d="M0 0 C0.98484375 -0.01160156 1.9696875 -0.02320313 2.984375 -0.03515625 C11.76813605 -0.00002121 18.39549301 1.8648629 25.375 7.375 C27.27347467 9.46207405 28.89947786 11.67916437 30.5 14 C30.93304443 14.62100586 31.36608887 15.24201172 31.81225586 15.88183594 C37.3361869 24.01088013 40.0554558 31.53570151 40.375 41.375 C40.4265625 42.60605469 40.478125 43.83710937 40.53125 45.10546875 C40.97495234 60.36513162 38.3392798 73.77910688 27.703125 85.203125 C19.96430757 92.42255871 9.50097138 98.29638869 -1.25 98.875 C-6.32378665 98.57970025 -10.22710313 96.82948373 -14.625 94.375 C-15.65367187 93.81167969 -16.68234375 93.24835938 -17.7421875 92.66796875 C-30.55816027 85.23943751 -40.4207851 74.30224535 -50.04223633 63.19848633 C-52.78184665 60.04220845 -55.60434002 56.96092525 -58.4140625 53.8671875 C-60.8820336 51.08526955 -63.25660884 48.24199982 -65.625 45.375 C-64.82835937 44.385 -64.03171875 43.395 -63.2109375 42.375 C-62.14045825 41.04180054 -61.07015752 39.70845772 -60 38.375 C-59.443125 37.68237061 -58.88625 36.98974121 -58.3125 36.27612305 C-55.66183401 32.96784612 -53.06522274 29.65557414 -50.625 26.1875 C-37.97511034 9.34549575 -21.39182912 -0.25399269 0 0 Z " fill="#FDFDFD" transform="translate(421.625,592.625)"/>
<path d="M0 0 C19.02978165 8.03379933 35.90610622 26.85278256 48.375 43 C40.09319079 50.11245077 31.69487519 57.03370803 23.05078125 63.70214844 C21.45295248 64.93962771 19.86677471 66.19210736 18.28125 67.4453125 C8.18103789 75.28626664 -3.73753688 83.83960705 -17.10546875 83.4296875 C-28.65005012 81.46084417 -35.90605565 73.53548422 -42.44140625 64.484375 C-51.13608378 51.1595198 -49.39146966 35.45071196 -46.6640625 20.44921875 C-44.81189695 11.66155852 -40.04494598 5.01439271 -32.625 0 C-23.86603551 -5.03172064 -9.25075596 -3.05274947 0 0 Z " fill="#FDFDFD" transform="translate(1273.625,592)"/>
<path d="M0 0 C-3.64455749 10.21580509 -12.00869305 20.24074858 -21.1875 26 C-24.00847008 27.00301158 -26.03321935 27.26177476 -29 27 C-29.33 26.01 -29.66 25.02 -30 24 C-25.15356301 14.93926997 -11.06967565 0 0 0 Z " fill="#F5F5F5" transform="translate(1826,779)"/>
</svg>
