<?xml version="1.0" encoding="UTF-8"?>
<svg version="1.1" xmlns="http://www.w3.org/2000/svg" width="1261" height="946">
<path d="M0 0 C416.13 0 832.26 0 1261 0 C1261 312.18 1261 624.36 1261 946 C844.87 946 428.74 946 0 946 C0 633.82 0 321.64 0 0 Z " fill="#FEFEFE" transform="translate(0,0)"/>
<path d="M0 0 C1.08023689 0.00835373 1.08023689 0.00835373 2.18229675 0.01687622 C4.51685208 0.04594742 6.84967666 0.09860075 9.18359375 0.16015625 C9.97664917 0.18020721 10.76970459 0.20025818 11.58679199 0.22091675 C24.40198485 0.60302112 35.11424044 2.28787313 46.62109375 8.22265625 C47.99148883 8.8777656 49.36258311 9.53141437 50.734375 10.18359375 C62.85957174 16.13467398 72.43146883 24.3971759 81.62109375 34.22265625 C82.31074219 34.94582031 83.00039063 35.66898437 83.7109375 36.4140625 C94.45929763 48.65229433 99.48189167 64.84855494 103.99658203 80.19580078 C104.83013175 82.90108998 105.83900048 85.52510494 106.87109375 88.16015625 C112.36943179 102.98969869 111.80353026 119.61419935 111.62109375 135.22265625 C94.38734121 139.38028636 77.10864522 143.20539294 59.74609375 146.78515625 C47.21073309 149.37044779 34.74253081 152.04441341 22.34936523 155.25268555 C16.19638569 156.84500104 10.02759952 158.28568704 3.80859375 159.59765625 C3.01839844 159.76563721 2.22820312 159.93361816 1.4140625 160.10668945 C-1.57179852 160.72352302 -4.32132154 161.22265625 -7.37890625 161.22265625 C-7.47389404 160.28172119 -7.56888184 159.34078613 -7.66674805 158.37133789 C-9.9835409 122.48321449 -9.9835409 122.48321449 -27.5 92.625 C-36.90836824 85.60295385 -47.67624293 86.2555057 -58.86328125 87.66015625 C-70.06244852 89.93409884 -75.95778906 97.32191468 -82.12890625 106.47265625 C-82.72525879 107.34092041 -83.32161133 108.20918457 -83.93603516 109.10375977 C-90.86177624 119.26279897 -97.58495977 129.61085481 -103.7265625 140.265625 C-104.08379395 140.87607666 -104.44102539 141.48652832 -104.80908203 142.11547852 C-105.7412675 143.71844893 -106.65282159 145.33336941 -107.5625 146.94921875 C-109.37890625 149.22265625 -109.37890625 149.22265625 -111.8515625 150.23828125 C-115.07375322 150.21836044 -115.94446827 149.42246135 -118.37890625 147.34765625 C-123.5659526 143.4612892 -129.06046717 140.90560512 -135.00390625 138.34765625 C-135.89851562 137.95465332 -136.793125 137.56165039 -137.71484375 137.15673828 C-147.42748097 133.06011744 -159.68679594 130.89659894 -169.98828125 134.01171875 C-173.40167261 135.64366863 -175.26786073 137.05608796 -177.37890625 140.22265625 C-179.50597738 158.15082721 -167.29095913 178.37061419 -157.75 192.78125 C-157.29753906 193.58691406 -156.84507812 194.39257812 -156.37890625 195.22265625 C-156.70890625 195.88265625 -157.03890625 196.54265625 -157.37890625 197.22265625 C-160.30956192 198.0686069 -163.1998561 198.7954464 -166.171875 199.46484375 C-167.06949051 199.67448761 -167.96710602 199.88413147 -168.891922 200.10012817 C-171.7816556 200.77384446 -174.67380583 201.43636677 -177.56640625 202.09765625 C-192.48087253 205.53447357 -207.27937271 209.00069257 -221.75390625 214.03515625 C-229.22118948 216.57448214 -236.74864168 218.87666957 -244.31640625 221.09765625 C-245.36554199 221.40807861 -246.41467773 221.71850098 -247.49560547 222.03833008 C-248.96731201 222.46601685 -248.96731201 222.46601685 -250.46875 222.90234375 C-251.78153931 223.28495361 -251.78153931 223.28495361 -253.12084961 223.67529297 C-255.37890625 224.22265625 -255.37890625 224.22265625 -258.37890625 224.22265625 C-259.73828125 222.76416016 -259.73828125 222.76416016 -261.12890625 220.69921875 C-261.64936523 219.93480469 -262.16982422 219.17039062 -262.70605469 218.3828125 C-263.2580957 217.54621094 -263.81013672 216.70960938 -264.37890625 215.84765625 C-264.95415039 214.98785156 -265.52939453 214.12804687 -266.12207031 213.2421875 C-267.89100739 210.57952299 -269.63887844 207.90428769 -271.37890625 205.22265625 C-271.88615234 204.44374023 -272.39339844 203.66482422 -272.91601562 202.86230469 C-288.70819462 178.40680483 -298.72407711 154.53901714 -298.75390625 125.09765625 C-298.77839844 123.81761719 -298.80289062 122.53757812 -298.828125 121.21875 C-298.87968574 104.42713407 -291.65115497 91.99318799 -280.3125 79.9296875 C-274.85830715 74.89672392 -268.76657807 70.96696712 -262.37890625 67.22265625 C-261.09306641 66.46855469 -261.09306641 66.46855469 -259.78125 65.69921875 C-250.83532128 61.13170392 -240.59886937 59.23841399 -230.89794922 56.8684082 C-228.83777631 56.34028673 -226.8023345 55.71651174 -224.77734375 55.06640625 C-220.38129932 53.97497453 -216.26725203 53.88102972 -211.75390625 53.91015625 C-210.84092773 53.9150708 -209.92794922 53.91998535 -208.98730469 53.92504883 C-180.70245604 54.39743196 -147.5373254 62.84420272 -125.37890625 81.22265625 C-125.19328125 80.02640625 -125.00765625 78.83015625 -124.81640625 77.59765625 C-119.96394659 56.2133685 -103.02791469 39.15600615 -86.37890625 26.22265625 C-85.61191406 25.61550781 -84.84492187 25.00835937 -84.0546875 24.3828125 C-71.51221786 14.99193115 -56.63566642 9.32341743 -41.28515625 6.7578125 C-38.17248954 6.18464672 -35.1357095 5.43120695 -32.06640625 4.66015625 C-26.16190832 3.24759694 -20.43331387 2.7581789 -14.375 2.53125 C-11.4815111 2.44120253 -11.4815111 2.44120253 -9.65283203 1.21728516 C-6.46347658 -0.17775823 -3.41715954 -0.04950912 0 0 Z " fill="#000000" transform="translate(712.37890625,228.77734375)"/>
<path d="M0 0 C-0.48152914 5.65488063 -1.46119086 9.65301454 -4.125 14.75 C-4.4648291 15.40556885 -4.8046582 16.0611377 -5.15478516 16.73657227 C-6.42199038 19.16560802 -7.71117865 21.58236403 -9 24 C-10.17191608 26.22263459 -11.34378784 28.44529255 -12.515625 30.66796875 C-20.05799097 44.92776393 -27.6903446 59.13303065 -36.375 72.73828125 C-41.40449781 80.62208495 -46.0291812 88.62419472 -50.4375 96.875 C-57.16819917 109.46559873 -64.41748464 121.60658829 -72.3125 133.5 C-78.65635726 143.27204583 -83.90433975 153.68454137 -89.37548828 163.95996094 C-91.53004779 167.99190789 -93.71394439 172.0057252 -95.9375 176 C-96.56527344 177.134375 -97.19304687 178.26875 -97.83984375 179.4375 C-99.50075563 182.29757308 -101.38117697 184.94288028 -103.3203125 187.62109375 C-107.46143853 193.46914344 -110.6972102 199.68281185 -113.9375 206.0625 C-114.54868541 207.25381888 -115.16017922 208.44497958 -115.77197266 209.63598633 C-120.39161867 218.66204619 -124.78190906 227.78073701 -129 237 C-129.96599121 237.02505615 -130.93198242 237.0501123 -131.92724609 237.07592773 C-136.40992073 237.19318192 -140.89247406 237.31470407 -145.375 237.4375 C-146.18630371 237.45956512 -146.99760742 237.48163025 -147.83349609 237.50436401 C-150.2718637 237.57144091 -152.71015379 237.64088292 -155.1484375 237.7109375 C-155.89652679 237.73131577 -156.64461609 237.75169403 -157.41537476 237.77268982 C-161.86555412 237.90316483 -166.30058826 238.1277769 -170.7429657 238.42025757 C-173.75490008 238.61007518 -176.76837183 238.75057841 -179.78292847 238.89147949 C-181.93452331 238.99679507 -184.08429608 239.12056039 -186.23461914 239.24902344 C-190.04583362 239.46957723 -193.85629783 239.61208617 -197.67211914 239.72555542 C-199.24760422 239.78286005 -200.82248048 239.86141524 -202.39575195 239.962677 C-214.98856119 240.75065224 -214.98856119 240.75065224 -219.86035156 236.51049805 C-222.15746212 233.44123141 -224.09462091 230.32338477 -226 227 C-226.97827285 225.71625086 -227.98570442 224.45336138 -229.0390625 223.23046875 C-230.37118678 221.66290861 -231.70328205 220.09532374 -233.03491211 218.52734375 C-235.43690451 215.72550571 -237.89134595 213.04545268 -240.5625 210.5 C-244.11421174 207.07453393 -246.99471949 203.18130481 -249.95727539 199.25439453 C-257.29576526 189.58236652 -265.42835118 180.58684424 -273.6328125 171.6484375 C-276.81047511 168.09323082 -279.79098884 164.39341453 -282.78515625 160.68359375 C-284.95632827 158.05291443 -287.20241357 155.52057576 -289.5 153 C-293.32170863 148.80270966 -296.91474189 144.46289769 -300.484375 140.05078125 C-303.42925052 136.47943376 -306.45720087 132.9878836 -309.5 129.5 C-313.99640886 124.3429813 -318.38809641 119.12165388 -322.6953125 113.8046875 C-325.39701715 110.51685031 -328.16120213 107.28735089 -330.9375 104.0625 C-352 79.57106518 -352 79.57106518 -352 76 C-326.92813781 69.1924843 -326.92813781 69.1924843 -317.6875 66.9375 C-312.67777189 65.71116031 -307.73539277 64.35191282 -302.7890625 62.8918457 C-290.26312222 59.19965554 -277.60379209 56.34852857 -264.83349609 53.63476562 C-262.36803297 53.0824475 -259.95178783 52.4457697 -257.51953125 51.765625 C-253.98264689 50.99622507 -252.38951739 50.94764319 -249 52 C-247.32177734 53.54370117 -247.32177734 53.54370117 -245.8359375 55.54296875 C-244.99724121 56.64862183 -244.99724121 56.64862183 -244.14160156 57.77661133 C-243.55862305 58.57220459 -242.97564453 59.36779785 -242.375 60.1875 C-241.12802353 61.84146209 -239.88062311 63.49510463 -238.6328125 65.1484375 C-238.01825195 65.97182617 -237.40369141 66.79521484 -236.77050781 67.64355469 C-234.31679817 70.90930283 -231.78770174 74.11193148 -229.25 77.3125 C-228.35621219 78.45138472 -227.46297449 79.59070139 -226.5703125 80.73046875 C-224.91035187 82.84751095 -223.23736532 84.95146595 -221.5546875 87.05078125 C-215.95229094 94.1393441 -210.98418468 101.51026252 -206.11352539 109.11889648 C-201.53644649 116.24737627 -196.73971193 123.20029776 -191.84472656 130.11352539 C-188.13780292 135.35040349 -184.53086972 140.64273592 -181 146 C-170.21444172 132.18007563 -163.28781201 114.64454106 -156.1015625 98.7734375 C-153.12557921 92.21861901 -149.99325734 85.74533422 -146.83517456 79.2772522 C-139.46154148 64.16525252 -132.06229133 48.94427158 -126.1640625 33.18359375 C-125.89722656 32.4757373 -125.63039063 31.76788086 -125.35546875 31.03857422 C-124.68780184 29.23239241 -124.04937534 27.41547072 -123.4140625 25.59765625 C-121.61822126 22.29866613 -120.51421295 22.15889104 -117 21 C-114.75754536 20.44068226 -112.50315106 19.92826252 -110.2421875 19.44921875 C-109.59147781 19.31043808 -108.94076813 19.17165741 -108.27033997 19.02867126 C-106.13964479 18.57628377 -104.00749979 18.13129794 -101.875 17.6875 C-100.76108383 17.45398834 -100.76108383 17.45398834 -99.62466431 17.21575928 C-85.45606503 14.24767793 -71.25637597 11.5147364 -57 9 C-56.03261902 8.82881653 -55.06523804 8.65763306 -54.06854248 8.48126221 C-47.12013171 7.25194721 -40.17042868 6.03023071 -33.21939087 4.81585693 C-30.83163469 4.39843902 -28.44407977 3.97986811 -26.05673218 3.56011963 C-22.676582 2.96672813 -19.29548317 2.37907152 -15.9140625 1.79296875 C-14.88812485 1.61198135 -13.86218719 1.43099396 -12.80516052 1.24452209 C-11.85061478 1.08028244 -10.89606903 0.91604279 -9.91259766 0.74682617 C-9.08136383 0.60202316 -8.25013 0.45722015 -7.39370728 0.30802917 C-4.90317224 -0.01246008 -2.50825681 -0.05338759 0 0 Z " fill="#010101" transform="translate(822,394)"/>
</svg>
