<?xml version="1.0" encoding="UTF-8"?>
<svg version="1.1" xmlns="http://www.w3.org/2000/svg" width="993" height="745">
<path d="M0 0 C327.69 0 655.38 0 993 0 C993 245.85 993 491.7 993 745 C665.31 745 337.62 745 0 745 C0 499.15 0 253.3 0 0 Z " fill="#000000" transform="translate(0,0)"/>
<path d="M0 0 C1.38281659 -0.00397551 2.76563 -0.00922608 4.1484375 -0.015625 C28.35784228 0.21767944 50.14334006 12.04878708 67.08276367 28.82861328 C86.64254918 49.17033193 97.96270158 84.10078115 98 112 C98.02785295 113.53126463 98.05649068 115.06251519 98.0859375 116.59375 C98.14244656 120.06526171 98.0796477 123.52903713 98 127 C96.92576782 127.21765015 96.92576782 127.21765015 95.82983398 127.43969727 C80.23995311 130.60803106 64.69494001 133.9234096 49.18481445 137.4609375 C40.60221048 139.41760454 32.00760786 141.30408671 23.3996582 143.14550781 C14.91787622 144.97916006 6.48849194 147.02181347 -1.93115234 149.12133789 C-2.92711426 149.3661792 -3.92307617 149.61102051 -4.94921875 149.86328125 C-5.82924561 150.08282471 -6.70927246 150.30236816 -7.6159668 150.52856445 C-10 151 -10 151 -14 151 C-14.10489746 149.75464478 -14.10489746 149.75464478 -14.21191406 148.48413086 C-16.15731473 115.22552218 -16.15731473 115.22552218 -32 87 C-34.5516633 85.28695951 -37.13798108 84.10077651 -40 83 C-40.94875 82.5875 -41.8975 82.175 -42.875 81.75 C-51.97051067 79.56707744 -63.25886724 80.57813279 -71.359375 85.40625 C-78.82620818 91.54178735 -83.65802232 100.23854859 -88.484375 108.46875 C-90.0052396 111.00875067 -91.61851563 113.46740217 -93.25 115.9375 C-98.4086548 123.95949802 -102.64337521 132.52534319 -107 141 C-113.19041125 140.08646358 -117.2183222 139.21243044 -122 135 C-125.05135489 133.28169757 -128.20652801 131.80109327 -131.375 130.3125 C-132.2 129.90966797 -133.025 129.50683594 -133.875 129.09179688 C-143.27713439 124.63697606 -156.31513447 122.59699251 -166.5234375 125.7890625 C-169.5280759 127.44985419 -171.09292063 129.13938094 -173 132 C-173.60318359 138.0859678 -172.04818594 143.12543951 -170.125 148.8125 C-169.81981445 149.72378662 -169.51462891 150.63507324 -169.20019531 151.57397461 C-165.63425556 161.72704641 -160.72671481 171.76279154 -154.203125 180.37109375 C-153 182 -153 182 -153 184 C-160.6561723 186.34805937 -168.2711364 188.31755131 -176.125 189.875 C-185.49091082 191.75688672 -194.52718821 194.42305597 -203.63916016 197.26953125 C-207.85273743 198.5732565 -212.09009187 199.79552484 -216.32739258 201.01953125 C-220.58480563 202.25950593 -224.81135611 203.57488095 -229.03125 204.9375 C-230.07112061 205.2682251 -231.11099121 205.5989502 -232.18237305 205.93969727 C-234.23722104 206.59472915 -236.28836298 207.26152655 -238.33520508 207.94116211 C-239.74129028 208.38600952 -239.74129028 208.38600952 -241.17578125 208.83984375 C-242.01020752 209.11175537 -242.84463379 209.38366699 -243.7043457 209.66381836 C-246.59114543 210.08656889 -247.62968924 209.67154156 -250 208 C-251.58056641 206.11499023 -251.58056641 206.11499023 -253.1015625 203.80859375 C-253.952948 202.52867554 -253.952948 202.52867554 -254.8215332 201.22290039 C-255.41667725 200.30371826 -256.01182129 199.38453613 -256.625 198.4375 C-257.24528076 197.4880249 -257.86556152 196.5385498 -258.50463867 195.56030273 C-260.35079989 192.7158169 -262.17813281 189.8600917 -264 187 C-264.48903809 186.24106445 -264.97807617 185.48212891 -265.48193359 184.70019531 C-278.64512247 164.11984399 -286.13227676 143.22221387 -286.375 118.75 C-286.38926025 117.56519043 -286.40352051 116.38038086 -286.41821289 115.15966797 C-286.32266893 98.3085443 -280.31303781 86.83143298 -268.87109375 74.640625 C-263.74670891 69.92758534 -258.01607358 66.45871826 -252 63 C-251.16855469 62.49597656 -250.33710938 61.99195313 -249.48046875 61.47265625 C-242.53572528 57.58028725 -235.00796476 56.16479474 -227.29614258 54.5402832 C-224.71865806 53.93380014 -222.20821633 53.16990648 -219.671875 52.41015625 C-213.9544261 50.83524862 -208.59750095 50.49949149 -202.6875 50.5625 C-201.65061035 50.57152344 -200.6137207 50.58054688 -199.54541016 50.58984375 C-173.86492454 51.1517629 -143.94748269 59.00060976 -124 76 C-123.79375 74.7625 -123.5875 73.525 -123.375 72.25 C-118.31158403 50.01952304 -98.98183513 31.31265239 -80.4921875 19.46875 C-67.82485053 12.00336019 -55.32421887 7.61435084 -40.734375 5.43359375 C-38.26046631 5.04130252 -35.87004323 4.52838373 -33.4375 3.9375 C-29.17237611 2.93531242 -24.94624797 2.59919579 -20.578125 2.34375 C-17.95890412 2.10632819 -17.95890412 2.10632819 -15.52734375 0.98046875 C-10.58880815 -0.93540828 -5.21905051 -0.14881203 0 0 Z " fill="#FDFDFD" transform="translate(608,184)"/>
<path d="M0 0 C-0.51582118 5.21772968 -1.72085425 9.04052563 -4.125 13.6875 C-4.4655542 14.34830566 -4.8061084 15.00911133 -5.15698242 15.68994141 C-6.42486436 18.13369251 -7.71235258 20.56660557 -9 23 C-9.55091309 24.05106934 -10.10182617 25.10213867 -10.66943359 26.18505859 C-17.94473111 40.05108128 -25.42073747 53.70203131 -33.74121094 66.97607422 C-35.85383338 70.37282365 -37.90341209 73.80577257 -39.9375 77.25 C-40.54658203 78.28133057 -40.54658203 78.28133057 -41.16796875 79.33349609 C-43.99398093 84.16717288 -46.66764476 89.07153232 -49.31005859 94.00756836 C-53.66642542 102.14053854 -58.18192541 110.01666531 -63.3125 117.6875 C-68.54034918 125.51658481 -73.2683218 133.57236377 -77.8125 141.8125 C-78.13376862 142.39501526 -78.45503723 142.97753052 -78.78604126 143.57769775 C-81.73023867 148.92845571 -84.6431728 154.294867 -87.48046875 159.703125 C-87.83197998 160.37239014 -88.18349121 161.04165527 -88.5456543 161.73120117 C-89.40468593 163.37960134 -90.25008312 165.03508966 -91.09375 166.69140625 C-92.72188127 169.51728163 -94.44731885 172.0684719 -96.34765625 174.7109375 C-100.05204816 179.92951552 -103.03553155 185.36724742 -105.9375 191.0625 C-106.44966064 192.05459473 -106.96182129 193.04668945 -107.48950195 194.06884766 C-111.03760481 200.98706421 -114.43852902 207.96719624 -117.67749023 215.03540039 C-119.91249622 219.91249622 -119.91249622 219.91249622 -121 221 C-123.44425694 221.23004771 -125.8614291 221.38582129 -128.3125 221.5 C-129.53453125 221.55982056 -129.53453125 221.55982056 -130.78125 221.62084961 C-141.25090286 222.09971301 -151.73157245 222.45710458 -162.21044922 222.65795898 C-163.77702112 222.68849152 -165.34359015 222.71917131 -166.91015625 222.75 C-167.68111633 222.76486954 -168.45207642 222.77973907 -169.24639893 222.7950592 C-174.14537533 222.90685363 -178.98854053 223.20941029 -183.87109375 223.625 C-200.17995952 224.78536238 -200.17995952 224.78536238 -205.28369141 221.55419922 C-209.30959119 217.88303861 -212.1548273 213.59859482 -214.8671875 208.90527344 C-216.25793633 206.56617777 -217.90010559 204.61528818 -219.75 202.625 C-220.27464844 202.03332031 -220.79929687 201.44164062 -221.33984375 200.83203125 C-222.5750715 199.4689211 -223.81859422 198.11331855 -225.06640625 196.76171875 C-229.22238636 192.22989348 -233.12380659 187.60649151 -236.8125 182.6875 C-240.78391641 177.40189729 -245.07139544 172.54798646 -249.60424805 167.73950195 C-253.54442938 163.54564727 -257.18573475 159.16758668 -260.7890625 154.6796875 C-263.1093495 151.86746685 -265.53071134 149.18202737 -268 146.5 C-272.03633055 142.10971431 -275.84030529 137.5882438 -279.5859375 132.94921875 C-282.33861767 129.5863166 -285.1617832 126.29067322 -288 123 C-291.53619203 118.89777379 -295.02863667 114.7719771 -298.4375 110.5625 C-301.93471599 106.25387959 -305.53848381 102.05446596 -309.1875 97.875 C-314.12948551 92.20108711 -319.00319259 86.47439883 -323.8125 80.6875 C-324.42955811 79.95192871 -325.04661621 79.21635742 -325.68237305 78.45849609 C-326.24738525 77.77480957 -326.81239746 77.09112305 -327.39453125 76.38671875 C-327.89831299 75.78045654 -328.40209473 75.17419434 -328.92114258 74.54956055 C-330 73 -330 73 -330 71 C-328.52473958 70.59765625 -327.04947917 70.1953125 -325.57421875 69.79296875 C-324.15979492 69.4072168 -324.15979492 69.4072168 -322.71679688 69.01367188 C-313.88671875 66.60546875 -313.88671875 66.60546875 -310.94946289 65.80493164 C-308.96651778 65.26377031 -306.98393829 64.72126766 -305.00170898 64.17749023 C-304.04466064 63.91524658 -303.0876123 63.65300293 -302.1015625 63.3828125 C-301.24771973 63.14836426 -300.39387695 62.91391602 -299.51416016 62.67236328 C-296.91287283 61.97669953 -294.30344916 61.32562884 -291.6875 60.6875 C-287.83537384 59.74058096 -284.00856494 58.73015588 -280.19140625 57.65234375 C-270.16468707 54.82968819 -260.13469691 52.26302161 -249.9375 50.125 C-248.92075195 49.9098877 -247.90400391 49.69477539 -246.85644531 49.47314453 C-238.07959374 47.68131516 -238.07959374 47.68131516 -234 48 C-231.78125 50.02734375 -231.78125 50.02734375 -229.5 52.9375 C-229.078396 53.46746582 -228.65679199 53.99743164 -228.22241211 54.54345703 C-226.7963177 56.34855503 -225.39678805 58.17214467 -224 60 C-223.48840332 60.66370605 -222.97680664 61.32741211 -222.44970703 62.01123047 C-219.69398789 65.58669416 -216.95566143 69.1746625 -214.23046875 72.7734375 C-212.22591362 75.41242092 -210.19549931 78.02344114 -208.11328125 80.6015625 C-202.7525979 87.24221092 -197.9146088 94.0277687 -193.34863281 101.23974609 C-188.02331461 109.62457109 -182.29810678 117.72952463 -176.54003906 125.82128906 C-175.52898631 127.25163699 -174.53044601 128.69092868 -173.54589844 130.13964844 C-172.41155082 131.79345591 -171.2121597 133.40234781 -170 135 C-169.34 135 -168.68 135 -168 135 C-160.01870853 120.58489983 -152.50683149 106.14887846 -145.76953125 91.10546875 C-142.86029642 84.62642795 -139.74342242 78.25525792 -136.625 71.875 C-125.05454665 48.54665268 -125.05454665 48.54665268 -115.82714844 24.26855469 C-114 21 -114 21 -110.54833984 19.41601562 C-109.06856681 19.04706708 -107.5798299 18.71306714 -106.0859375 18.40625 C-105.25871185 18.21317261 -104.43148621 18.02009521 -103.57919312 17.82116699 C-100.72676412 17.17303943 -97.86680677 16.58114538 -95 16 C-93.94590942 15.78311523 -92.89181885 15.56623047 -91.80578613 15.34277344 C-84.6765377 13.89064971 -77.53247397 12.52702131 -70.37939453 11.19775391 C-66.66434154 10.50731162 -62.95119271 9.80732657 -59.23828125 9.10546875 C-51.83028403 7.710527 -44.41688619 6.34683025 -37 5 C-36.01872383 4.82135406 -36.01872383 4.82135406 -35.0176239 4.63909912 C-30.39676337 3.79874527 -25.77331355 2.97422286 -21.1484375 2.15625 C-19.94692047 1.93900269 -18.74540344 1.72175537 -17.50747681 1.4979248 C-11.57785928 0.46312074 -6.01965317 -0.25525031 0 0 Z " fill="#FDFDFD" transform="translate(704,339)"/>
</svg>
