<?xml version="1.0" encoding="UTF-8"?>
<svg version="1.1" xmlns="http://www.w3.org/2000/svg" width="2160" height="1620">
<path d="M0 0 C712.8 0 1425.6 0 2160 0 C2160 534.6 2160 1069.2 2160 1620 C1447.2 1620 734.4 1620 0 1620 C0 1085.4 0 550.8 0 0 Z " fill="#000000" transform="translate(0,0)"/>
<path d="M0 0 C8.71844003 -0.02312611 17.43686956 -0.04091646 26.15533352 -0.05181217 C30.20325742 -0.05704041 34.25116041 -0.06413699 38.29907227 -0.07543945 C42.20235971 -0.08627043 46.10562699 -0.09227728 50.0089283 -0.09487724 C51.50133647 -0.09673111 52.99374348 -0.100351 54.48614311 -0.10573006 C56.56948139 -0.11294331 58.65273531 -0.11399083 60.73608398 -0.11352539 C61.92411118 -0.115746 63.11213837 -0.11796661 64.33616638 -0.12025452 C67 0 67 0 68 1 C68.09527037 2.34072817 68.1218877 3.68642503 68.12025452 5.03053284 C68.12231651 6.33258163 68.12231651 6.33258163 68.12442017 7.66093445 C68.11902725 9.10023064 68.11902725 9.10023064 68.11352539 10.56860352 C68.11367142 11.57336731 68.11381744 12.5781311 68.1139679 13.61334229 C68.1132683 16.95188517 68.10547374 20.29037305 68.09765625 23.62890625 C68.09579224 25.93676218 68.09436826 28.24461851 68.09336853 30.55247498 C68.08954204 36.64017826 68.07971065 42.72785786 68.06866455 48.81555176 C68.05845323 55.02221354 68.05387151 61.22887913 68.04882812 67.43554688 C68.0380885 79.62370835 68.02101052 91.81185221 68 104 C69.22759033 102.56672363 69.22759033 102.56672363 70.47998047 101.10449219 C71.56737448 99.83527932 72.65477729 98.56607399 73.7421875 97.296875 C74.27996826 96.66894043 74.81774902 96.04100586 75.37182617 95.39404297 C99.31610082 67.44992381 124.86582853 42.69454128 161.66015625 33.67578125 C163.97972664 33.10271479 163.97972664 33.10271479 165.81518555 31.97875977 C177.69752093 26.65567534 197.10698272 30.93866112 209 35 C209.63099609 35.20898926 210.26199219 35.41797852 210.91210938 35.63330078 C225.64716354 40.56592297 241.30224516 46.5902651 253 57 C254.53527344 58.21623047 254.53527344 58.21623047 256.1015625 59.45703125 C271.94417547 72.06819214 281.9935205 88.08741395 284.33178711 108.3737793 C284.50786499 110.10688354 284.50786499 110.10688354 284.6875 111.875 C284.8119751 113.09807861 284.9364502 114.32115723 285.06469727 115.58129883 C287.7756291 144.46393352 288.67619951 174.65456717 270.5625 198.75 C269.38224101 200.17270496 268.19439262 201.58913964 267 203 C265.98486328 204.28777344 265.98486328 204.28777344 264.94921875 205.6015625 C253.39628597 220.17098039 241.13503837 231.58577115 223 237 C222.04867187 237.28617188 221.09734375 237.57234375 220.1171875 237.8671875 C208.38659283 241.22335219 197.04334694 242.19187494 185.05859375 239.53515625 C182.31145924 239.05449542 179.68437655 238.82405464 176.90625 238.62890625 C170.72492722 238.0939091 164.99761087 236.63836106 159.0625 234.875 C157.47828247 234.40477417 157.47828247 234.40477417 155.86206055 233.92504883 C148.09986289 231.52722025 141.59890677 228.81964598 135 224 C133.97519531 223.27167969 132.95039063 222.54335938 131.89453125 221.79296875 C124.53703449 216.41986366 117.88123333 210.35293129 111.2890625 204.078125 C109.02276345 201.92539669 106.69860664 199.87374673 104.30859375 197.859375 C101.79135869 195.72349686 99.5531018 193.54508487 97.4375 191 C95.35248111 188.50421678 93.1876295 186.15907536 90.88305664 183.8671875 C90.34306534 183.3294873 89.80307404 182.79178711 89.24671936 182.23779297 C88.83530197 181.82932129 88.42388458 181.42084961 88 181 C87.54149658 182.12905762 87.08299316 183.25811523 86.6105957 184.42138672 C84.89065589 188.65366118 83.16544414 192.88377043 81.4387207 197.11328125 C80.69544311 198.93594679 79.95355167 200.7591783 79.21313477 202.58300781 C77.13974192 207.68889499 75.04229764 212.78318225 72.89801025 217.85974121 C72.11854932 219.71745732 71.36255507 221.58498608 70.61083984 223.45410156 C70.02036865 224.81100098 70.02036865 224.81100098 69.41796875 226.1953125 C69.11012451 226.93023926 68.80228027 227.66516602 68.48510742 228.42236328 C66.08954216 230.96718372 63.31574912 230.85790185 60 231 C55.63840307 231.12609967 51.28120163 231.14014576 46.91796875 231.1328125 C45.66744217 231.13376923 44.41691559 231.13472595 43.12849426 231.13571167 C39.82327508 231.13656346 36.5181035 231.13255722 33.21289062 231.12695312 C30.50765085 231.12434441 27.80244419 231.12916437 25.09720898 231.13394356 C21.87079269 231.13841715 18.64438606 231.13529038 15.41796875 231.1328125 C14.20344528 231.13483673 12.98892181 231.13686096 11.7375946 231.13894653 C10.61915665 231.13579437 9.50071869 231.13264221 8.34838867 231.12939453 C7.36134445 231.12859894 6.37430023 231.12780334 5.35734558 231.12698364 C3 231 3 231 1 230 C0.9845388 228.50046028 0.9845388 228.50046028 0.96876526 226.97062683 C0.86937419 217.37184861 0.7665434 207.77311205 0.66066074 198.17440319 C0.60637733 193.2441326 0.55315125 188.31385618 0.50268555 183.38354492 C0.44396741 177.66581324 0.38189367 171.94812694 0.31640625 166.23046875 C0.30548447 165.27495432 0.29456268 164.31943989 0.28330994 163.33497047 C0.14894102 151.94670211 -0.07434141 140.56857574 -0.45888329 129.18611908 C-1.22508209 106.38070587 -1.15204131 83.57006487 -1.13037109 60.75415039 C-1.12456802 54.57076551 -1.12803647 48.38742304 -1.13394356 42.20403957 C-1.1375402 37.40615003 -1.13641658 32.60827077 -1.13381577 27.81038094 C-1.13314943 25.5261338 -1.13396465 23.24188574 -1.13629532 20.95763969 C-1.13881829 17.80303281 -1.13499122 14.64849795 -1.12939453 11.49389648 C-1.13141876 10.55554459 -1.13344299 9.61719269 -1.13552856 8.65040588 C-1.13270874 7.79792267 -1.12988892 6.94543945 -1.12698364 6.06712341 C-1.12660662 5.32537086 -1.12622959 4.5836183 -1.12584114 3.81938839 C-1 2 -1 2 0 0 Z " fill="#FDFDFD" transform="translate(242,503)"/>
<path d="M0 0 C1.24486679 -0.0033284 2.48973358 -0.0066568 3.77232361 -0.01008606 C6.38165927 -0.01511692 8.99100129 -0.01749558 11.6003418 -0.01733398 C14.27629966 -0.0188078 16.95180643 -0.02433624 19.62768555 -0.0378418 C23.50184367 -0.05605254 27.37580354 -0.06106402 31.25 -0.0625 C32.45197525 -0.06968552 33.6539505 -0.07687103 34.89234924 -0.08427429 C36.55064003 -0.07965935 36.55064003 -0.07965935 38.24243164 -0.07495117 C39.21741104 -0.07637619 40.19239044 -0.07780121 41.19691467 -0.07926941 C43.52734375 0.16796875 43.52734375 0.16796875 45.52734375 2.16796875 C45.76941408 4.83905507 45.88792689 7.41298578 45.92211914 10.08886719 C45.94940849 11.31912376 45.94940849 11.31912376 45.97724915 12.57423401 C46.03565305 15.30850144 46.08023338 18.04282175 46.125 20.77734375 C46.16367965 22.69803687 46.20328141 24.61871161 46.24375916 26.53936768 C46.34882658 31.63066011 46.44250748 36.72209875 46.5335083 41.81365967 C46.67913356 49.83819512 46.84326306 57.86238731 47.0040226 65.88663101 C47.06285746 68.857896 47.11957611 71.82919629 47.17607117 74.80050659 C47.35316037 83.9343658 47.57236812 93.05955651 47.94567871 102.18765259 C48.91680296 126.02910073 48.63904839 149.89993658 48.5960083 173.75616455 C48.58562741 180.13301253 48.58117961 186.50986468 48.57617188 192.88671875 C48.56556896 205.31381277 48.54858852 217.74088867 48.52734375 230.16796875 C41.69997359 230.60224311 34.87213741 231.0285556 28.04394531 231.44970703 C25.7280795 231.59344377 23.41232013 231.73890749 21.09667969 231.88623047 C8.22559915 232.70388338 -4.57196029 233.43104941 -17.47265625 233.16796875 C-21.43498916 223.95920466 -24.2292477 214.44515817 -27.09765625 204.85546875 C-27.83309189 202.40570562 -28.56984993 199.95635937 -29.30917358 197.50776672 C-29.76573625 195.99481908 -30.21998895 194.48117174 -30.67153931 192.96672058 C-31.7787337 189.28923236 -32.97531053 185.70569643 -34.47265625 182.16796875 C-35.00890625 182.69003906 -35.54515625 183.21210937 -36.09765625 183.75 C-41.86428843 189.16570226 -47.88716603 193.67613855 -54.4453125 198.07495117 C-58.57491872 200.84723021 -62.55182315 203.72681317 -66.47265625 206.79296875 C-80.43311651 217.39152226 -96.47535361 225.02258053 -113.47265625 229.16796875 C-114.21692871 229.35278809 -114.96120117 229.53760742 -115.72802734 229.72802734 C-136.79703782 234.83003706 -160.18348154 236.50047349 -179.53125 225.10546875 C-184.1247349 222.07974696 -188.30272055 218.74834064 -192.47265625 215.16796875 C-193.57388863 214.27142891 -194.67686114 213.37702369 -195.78125 212.484375 C-211.32070458 199.77125275 -225.7564173 183.79878013 -231.47265625 164.16796875 C-231.73723633 163.26747803 -232.00181641 162.3669873 -232.27441406 161.43920898 C-234.58505748 152.6217065 -234.93550089 144.25231233 -234.86376953 135.203125 C-234.847722 132.80280338 -234.86368489 130.40417637 -234.8828125 128.00390625 C-234.90311748 114.31571394 -232.70757541 101.67108637 -228.28515625 88.66796875 C-227.98472412 87.78069092 -227.68429199 86.89341309 -227.37475586 85.97924805 C-220.30248488 65.81408743 -208.43280884 48.59546057 -188.828125 38.9921875 C-171.15064884 31.09496271 -150.23142077 29.73020674 -131.09765625 29.79296875 C-130.01964752 29.79528 -130.01964752 29.79528 -128.91986084 29.79763794 C-101.99239115 29.93462307 -82.08172048 38.2979832 -61.42333984 55.54785156 C-59.68624727 56.99057325 -57.92861621 58.39625567 -56.1484375 59.78515625 C-50.59504416 64.1642304 -45.94292566 68.70739121 -41.47265625 74.16796875 C-40.56478695 75.22982416 -39.65442334 76.28954976 -38.7421875 77.34765625 C-37.75629461 78.49590849 -36.77061815 79.6443466 -35.78515625 80.79296875 C-35.32109375 81.33147461 -34.85703125 81.86998047 -34.37890625 82.42480469 C-33.93160156 82.95106445 -33.48429687 83.47732422 -33.0234375 84.01953125 C-32.62809814 84.48182129 -32.23275879 84.94411133 -31.82543945 85.42041016 C-29.89931736 87.90862202 -28.21011596 90.54581373 -26.47265625 93.16796875 C-26.46234879 92.03013443 -26.45204132 90.89230011 -26.44142151 89.71998596 C-26.34386488 79.02160464 -26.24114811 68.3232838 -26.13331699 57.62500095 C-26.07804126 52.12428907 -26.02461396 46.62357193 -25.9753418 41.12280273 C-25.92776667 35.81895592 -25.87542662 30.51517599 -25.8197155 25.21140862 C-25.79926079 23.18313184 -25.78055299 21.1548367 -25.76358223 19.12652779 C-25.73960693 16.29595391 -25.70954338 13.4655077 -25.67797852 10.63500977 C-25.67222305 9.78768784 -25.66646759 8.94036591 -25.66053772 8.06736755 C-25.58670841 2.28202091 -25.58670841 2.28202091 -24.47265625 1.16796875 C-16.38672511 -0.06866732 -8.15828239 0.00766942 0 0 Z " fill="#FDFDFD" transform="translate(1389.47265625,499.83203125)"/>
<path d="M0 0 C11.08829076 -0.11910561 22.09967468 0.14300773 33.16894531 0.79956055 C35.52640549 0.93906254 37.88421559 1.07063261 40.2421875 1.20117188 C41.77606776 1.28860593 43.309923 1.37648036 44.84375 1.46484375 C45.53142456 1.50343002 46.21909912 1.5420163 46.9276123 1.58177185 C51.97336129 1.88492777 56.98089889 2.4033921 62 3 C62.03132695 9.06248792 62.0493871 15.12494676 62.0625 21.1875 C62.06510834 22.13429626 62.06771667 23.08109253 62.07040405 24.05657959 C62.09770549 36.40067277 61.99483484 48.73705011 61.71814156 61.0779438 C61.6719565 63.14868979 61.62769127 65.2194686 61.58396912 67.29026794 C61.34304336 78.61321435 61.34304336 78.61321435 61.20120239 83.68051147 C61.09555433 87.52900148 61.00918859 91.37753555 60.92578125 95.2265625 C60.86973724 96.94135048 60.86973724 96.94135048 60.81256104 98.69078064 C60.68571644 105.45812907 61.07471491 111.78370173 64 118 C66.52241456 120.34089931 66.52241456 120.34089931 70 120 C78.81364474 116.85595129 83.647858 108.09727115 88.72167969 100.79199219 C90.43379029 98.39189826 92.29703153 96.13614856 94.1875 93.875 C101.70966726 84.54506138 107.02255036 74.28136493 111.9453125 63.43359375 C114.47627797 57.88048169 117.24860057 52.44626325 120 47 C143.05355874 48.17267874 166.01988364 49.81766523 189 52 C189.17355077 61.43738118 189.33982804 70.87488282 189.5 80.3125 C189.51187725 81.01208076 189.5237545 81.71166153 189.53599167 82.43244171 C189.9555824 107.29210715 190.08817188 132.1355309 190 157 C202.21 157 214.42 157 227 157 C227.60663333 161.24643332 228.13035578 165.06694031 228.28125 169.28515625 C228.33732422 170.69958008 228.33732422 170.69958008 228.39453125 172.14257812 C228.46498466 174.09309387 228.5352966 176.04361474 228.60546875 177.99414062 C228.64285156 178.93580078 228.68023438 179.87746094 228.71875 180.84765625 C228.74904297 181.69336182 228.77933594 182.53906738 228.81054688 183.41040039 C228.96202191 186.06636599 228.96202191 186.06636599 229.50708008 188.9206543 C230.39914867 194.49354245 230.18454513 200.11802128 230.1875 205.75 C230.19974609 206.99394531 230.21199219 208.23789062 230.22460938 209.51953125 C230.22654297 210.70417969 230.22847656 211.88882813 230.23046875 213.109375 C230.23457764 214.19186523 230.23868652 215.27435547 230.24291992 216.38964844 C230 219 230 219 228 221 C226.16500854 221.24050903 226.16500854 221.24050903 223.91748047 221.22705078 C222.65639969 221.22682419 222.65639969 221.22682419 221.36984253 221.22659302 C220.46146637 221.21627045 219.55309021 221.20594788 218.6171875 221.1953125 C217.68778351 221.1924826 216.75837952 221.18965271 215.80081177 221.18673706 C212.8254115 221.17552069 209.85030965 221.1504136 206.875 221.125 C204.86068142 221.11497208 202.84635814 221.1058459 200.83203125 221.09765625 C195.88790544 221.07557661 190.94400335 221.04103693 186 221 C186.01812744 221.7019751 186.03625488 222.4039502 186.05493164 223.12719727 C186.43199177 248.51519472 174.88362292 273.76032127 159 293 C158.44828125 293.66902344 157.8965625 294.33804687 157.328125 295.02734375 C151.65147646 301.24532218 144.10392333 305.60044491 137 310 C136.16597656 310.51949219 135.33195312 311.03898437 134.47265625 311.57421875 C132.02743953 312.93649239 129.61352867 313.99341399 127 315 C126.41492676 315.22558594 125.82985352 315.45117188 125.22705078 315.68359375 C114.37558923 319.65789791 103.60259793 320.50129483 92.125 320.5625 C90.83053955 320.57708252 89.5360791 320.59166504 88.20239258 320.60668945 C75.43586091 320.47204722 64.43714002 317.42053231 54 310 C53.03191406 309.32453125 52.06382813 308.6490625 51.06640625 307.953125 C41.06446993 300.35929819 32.24212586 289.02469073 29.33203125 276.546875 C26.93611076 258.16875551 33.82932717 243.67881492 44.12890625 228.95703125 C52.55359943 218.20507476 63.20206256 209.27790961 74 201 C75.18113547 200.06528848 76.36211324 199.13037767 77.54296875 198.1953125 C93.92797016 185.38240649 112.2188464 176.755162 131 168 C131.09663612 158.81956868 131.08639873 149.66872483 130.5625 140.5 C130.52326416 139.7769165 130.48402832 139.05383301 130.44360352 138.30883789 C130.24566064 134.52866933 130.24566064 134.52866933 129 131 C128.57332031 131.76441406 128.14664062 132.52882813 127.70703125 133.31640625 C122.50609679 142.22769808 116.33535457 149.75330498 109.43017578 157.39794922 C107.69075644 159.34640768 106.03707592 161.36048389 104.375 163.375 C96.60842429 172.1314334 87.78923939 177.6658611 77 182 C76.03707031 182.41378906 75.07414062 182.82757812 74.08203125 183.25390625 C67.79970975 185.79696164 62.72032718 186.47312648 56 186 C54.9171875 185.96777344 53.834375 185.93554688 52.71875 185.90234375 C38.51550977 185.28959334 26.70784039 181.44547363 16 172 C13.44575637 168.86409693 11.69037568 165.66248064 10 162 C9.34644531 160.70255859 9.34644531 160.70255859 8.6796875 159.37890625 C3.97905467 149.68209183 1.12750824 139.65155116 -0.6875 129.0625 C-0.80689941 128.37212646 -0.92629883 127.68175293 -1.04931641 126.97045898 C-3.06166483 114.3095548 -3.23337066 101.47913899 -3.25 88.6875 C-3.25233643 87.85646759 -3.25467285 87.02543518 -3.25708008 86.16921997 C-3.28655816 57.43043134 -1.49092048 28.69163012 0 0 Z " fill="#FDFDFD" transform="translate(1698,550)"/>
<path d="M0 0 C19.65169829 -0.2062088 39.24972047 -0.215725 58.875 0.9375 C59.63873932 0.98106628 60.40247864 1.02463257 61.18936157 1.06951904 C73.80381757 1.80381757 73.80381757 1.80381757 75 3 C76.41848708 15.38578558 76.30873773 27.98864825 76.5625 40.4375 C76.60581289 42.44076187 76.64943064 44.44401717 76.69335938 46.44726562 C76.79908035 51.2981087 76.90070069 56.1490214 77 61 C77.71430176 60.27119629 78.42860352 59.54239258 79.16455078 58.79150391 C84.18804125 53.69626653 89.15758037 48.70122179 94.875 44.375 C95.45813965 43.92608398 96.0412793 43.47716797 96.64208984 43.01464844 C119.51593505 25.56170103 139.31945134 15.42459141 168.5625 18.6875 C185.9510569 21.33041483 203.21687728 29.04902579 217 40 C218.19109375 40.928125 218.19109375 40.928125 219.40625 41.875 C240.41427957 59.42601204 256.17948975 88.94593469 260 116 C260.26734862 121.57867455 260.24310091 127.16558349 260.25 132.75 C260.25233643 133.61018738 260.25467285 134.47037476 260.25708008 135.35662842 C260.28899885 167.58080901 258.45071871 199.81557986 257 232 C207.03468321 232.20638953 207.03468321 232.20638953 187 231 C186.97513536 225.87711941 186.95706248 220.75427458 186.94506836 215.63134766 C186.94006396 213.89143257 186.93325841 212.15152164 186.92456055 210.41162109 C186.91232338 207.89940358 186.90673261 205.38724206 186.90234375 202.875 C186.89718246 202.10696045 186.89202118 201.3389209 186.88670349 200.54760742 C186.88633832 196.96914605 187.01232728 193.50297494 187.4934082 189.95483398 C188.01252301 185.902236 188.17783212 181.92532732 188.203125 177.84765625 C188.21004868 177.0822905 188.21697235 176.31692474 188.22410583 175.52836609 C188.24140362 173.03969185 188.24770566 170.55123172 188.25 168.0625 C188.25133942 167.20861694 188.25267883 166.35473389 188.25405884 165.47497559 C188.2499071 153.18183269 187.8030419 140.99305456 186.6875 128.75 C186.62864624 128.07607208 186.56979248 127.40214417 186.50915527 126.70779419 C185.38513272 114.18079778 183.86624311 100.27627487 174.125 91.265625 C165.02875458 85.48301184 151.0808261 86.71176567 140.87890625 88.69921875 C128.60891891 91.88430856 120.02189805 98.33380402 111 107 C109.6696875 108.2684375 109.6696875 108.2684375 108.3125 109.5625 C107.549375 110.366875 106.78625 111.17125 106 112 C105.22269531 112.78503906 105.22269531 112.78503906 104.4296875 113.5859375 C99.19488499 119.14938232 95.56140687 125.4784025 91.98193359 132.16650391 C91.04024607 133.92485132 90.07721257 135.67171635 89.11328125 137.41796875 C84.38698238 146.32719591 81.4881841 155.26352412 79 165 C78.70222656 166.10472656 78.40445313 167.20945312 78.09765625 168.34765625 C73.83473336 185.80231068 73.80116402 204.3099836 73.34130859 222.17431641 C73.3098877 223.31175293 73.2784668 224.44918945 73.24609375 225.62109375 C73.21020142 227.14367798 73.21020142 227.14367798 73.17358398 228.69702148 C73 231 73 231 72 232 C69.88862099 232.09948193 67.77387714 232.12799638 65.66015625 232.12939453 C64.66748245 232.13202301 64.66748245 232.13202301 63.65475464 232.13470459 C61.4573101 232.13912217 59.25994542 232.13618547 57.0625 232.1328125 C55.54174789 232.13348557 54.02099588 232.13445561 52.50024414 232.13571167 C49.30907164 232.13718851 46.11792708 232.13503452 42.92675781 232.13037109 C38.8273547 232.1246738 34.72801704 232.12795288 30.62861633 232.13394356 C27.48717756 232.13754954 24.34575442 232.13641042 21.20431519 232.13381577 C19.69237256 232.1331466 18.18042854 232.13397457 16.66848755 232.13629532 C14.55890113 232.13882245 12.44942213 232.13498044 10.33984375 232.12939453 C9.13706787 232.12859894 7.93429199 232.12780334 6.69506836 232.12698364 C4 232 4 232 3 231 C2.88185423 229.29956004 2.83263244 227.59428887 2.81054688 225.88989258 C2.78541016 224.24009903 2.78541016 224.24009903 2.75976562 222.55697632 C2.74623047 221.34836945 2.73269531 220.13976257 2.71875 218.89453125 C2.70070313 217.64402985 2.68265625 216.39352844 2.6640625 215.10513306 C2.62549548 212.41082329 2.58859848 209.71654984 2.55444336 207.02218628 C2.47401036 200.71111954 2.37752726 194.40029067 2.28175354 188.0894413 C2.26054381 186.68858392 2.23949748 185.28772406 2.21861267 183.8868618 C2.04237772 172.0686701 1.81695004 160.2527883 1.5 148.4375 C1.47970734 147.6718573 1.45941467 146.9062146 1.43850708 146.11737061 C1.19623011 137.13853053 0.83898893 128.17498617 0.3046875 119.20874023 C-0.14760276 110.82769233 -0.05275269 102.43883962 0.03686523 94.04858398 C0.08655592 87.35169958 -0.10131243 80.71706669 -0.4921875 74.03515625 C-1.20664697 61.37157502 -1.15199126 48.7008206 -1.13037109 36.02124023 C-1.12457634 32.57387937 -1.12803175 29.12659473 -1.13394356 25.67923641 C-1.1384095 22.35776592 -1.13529495 19.0363164 -1.1328125 15.71484375 C-1.13483673 14.48064194 -1.13686096 13.24644012 -1.13894653 11.97483826 C-1.13579437 10.83837357 -1.13264221 9.70190887 -1.12939453 8.53100586 C-1.12820114 7.03264442 -1.12820114 7.03264442 -1.12698364 5.50401306 C-1 3 -1 3 0 0 Z " fill="#FDFDFD" transform="translate(851,502)"/>
<path d="M0 0 C3.67696093 0.00544295 7.3538041 -0.00001899 11.03076172 -0.00634766 C13.36539741 -0.00568824 15.70003302 -0.00440994 18.03466797 -0.00244141 C19.68589661 -0.00547775 19.68589661 -0.00547775 21.3704834 -0.00857544 C22.37663696 -0.00542328 23.38279053 -0.00227112 24.41943359 0.00097656 C25.30747681 0.00177216 26.19552002 0.00256775 27.11047363 0.00338745 C29.12841797 0.13037109 29.12841797 0.13037109 30.12841797 1.13037109 C30.36614596 3.43570105 30.53716705 5.71464645 30.66577148 8.02709961 C30.70900732 8.77120779 30.75224316 9.51531597 30.79678917 10.28197289 C30.93888336 12.83650553 31.06877774 15.3914034 31.19482422 17.94677734 C31.23980104 18.85017916 31.28477787 19.75358097 31.33111763 20.6843586 C32.20782798 39.0478761 32.2738605 57.40349009 32.21826172 75.78271484 C32.2162666 76.49566601 32.21427148 77.20861718 32.2122159 77.94317293 C32.17638357 90.51084345 32.11341307 103.07837724 32.03900146 115.64587402 C31.99049594 123.86821901 31.94853205 132.09047545 31.92749316 140.31294256 C31.91603544 144.50379101 31.89077306 148.69424936 31.85474575 152.88495529 C31.83112856 156.06690311 31.82687222 159.2488874 31.81958008 162.4309082 C31.80565216 163.57908524 31.79172424 164.72726227 31.77737427 165.91023254 C31.77860794 166.955914 31.77984161 168.00159546 31.78111267 169.07896423 C31.77306815 170.44204916 31.77306815 170.44204916 31.76486111 171.83267117 C31.9553655 174.19503837 31.9553655 174.19503837 33.49387455 175.95389652 C35.13178613 177.39084303 35.13178613 177.39084303 37.62841797 177.00537109 C40.34486252 176.0546155 41.29212717 175.29421647 43.12841797 173.13037109 C44.07966541 171.13234059 44.07966541 171.13234059 44.75341797 169.00537109 C46.04508464 165.21370443 46.04508464 165.21370443 47.12841797 164.13037109 C48.95339338 164.02608508 50.78241128 163.99182746 52.61035156 163.98510742 C53.78181732 163.97872757 54.95328308 163.97234772 56.1602478 163.96577454 C58.0742186 163.9641053 58.0742186 163.9641053 60.02685547 163.96240234 C61.97841049 163.95740974 61.97841049 163.95740974 63.96939087 163.95231628 C66.72846302 163.94631839 69.48750382 163.944477 72.24658203 163.94506836 C75.78310486 163.9451699 79.31942654 163.93152932 82.85590172 163.91429615 C86.22538951 163.90050409 89.59483978 163.90108733 92.96435547 163.89990234 C94.23628754 163.89271683 95.5082196 163.88553131 96.81869507 163.87812805 C97.99646515 163.88120468 99.17423523 163.88428131 100.38769531 163.88745117 C101.42614594 163.88602615 102.46459656 163.88460114 103.53451538 163.88313293 C106.12841797 164.13037109 106.12841797 164.13037109 109.12841797 166.13037109 C111.11423949 182.58432087 102.26476582 203.00491362 93.12841797 216.13037109 C82.50326149 228.99136124 69.34573424 234.07638663 53.12841797 236.13037109 C33.53465188 237.67690594 10.81473172 238.14726371 -5.87158203 226.13037109 C-6.60119141 225.61732422 -7.33080078 225.10427734 -8.08251953 224.57568359 C-22.25885972 214.07648284 -33.25778265 199.97176924 -38.87158203 183.13037109 C-39.0120989 181.30511949 -39.09604909 179.47534628 -39.15063477 177.64550781 C-39.18705582 176.45281281 -39.22347687 175.2601178 -39.26100159 174.03128052 C-39.29695862 172.66588366 -39.33249718 171.30047573 -39.36767578 169.93505859 C-39.39734342 168.8622143 -39.39734342 168.8622143 -39.4276104 167.76769638 C-40.12595784 142.4155163 -40.44442472 117.05261341 -40.83437383 91.69415259 C-40.92295774 85.94525116 -41.01441815 80.19639828 -41.10661227 74.44755375 C-41.20795908 68.12470542 -41.30748086 61.8018296 -41.40615654 55.47893906 C-41.44747327 52.83276311 -41.48944851 50.1866002 -41.53175545 47.54043961 C-41.72295367 35.52270106 -41.90658633 23.50462768 -41.95922852 11.48535156 C-41.9660946 10.65661089 -41.97296068 9.82787022 -41.98003483 8.97401619 C-41.98831386 3.36383474 -41.98831386 3.36383474 -40.87158203 1.13037109 C-27.2492469 0.0692985 -13.65879826 -0.02417486 0 0 Z " fill="#FDFDFD" transform="translate(1539.87158203125,504.86962890625)"/>
<path d="M0 0 C9.16329743 0.14313041 15.7753102 2.16217166 23.85253906 6.45751953 C24.78324219 6.92544922 25.71394531 7.39337891 26.67285156 7.87548828 C43.82357732 17.2375817 51.45828551 33.85992926 57.08544922 51.71435547 C59.80953023 61.45584949 59.94480153 71.40603626 59.85253906 81.45751953 C50.38047256 83.56839469 40.90747221 85.67501465 31.43310547 87.77554321 C27.31201395 88.6893406 23.19122273 89.60443267 19.07128906 90.5234375 C15.36245525 91.35072032 11.65276368 92.17403882 7.94238281 92.99435425 C6.55403138 93.30205007 5.1660066 93.61122369 3.77832031 93.92190552 C1.84559776 94.35435569 -0.08840481 94.78107314 -2.02246094 95.20751953 C-3.11300781 95.44986328 -4.20355469 95.69220703 -5.32714844 95.94189453 C-8.14746094 96.45751953 -8.14746094 96.45751953 -12.14746094 96.45751953 C-12.25703125 95.21357422 -12.36660156 93.96962891 -12.47949219 92.68798828 C-13.88449489 72.80791629 -13.88449489 72.80791629 -23.58496094 56.08251953 C-30.55229071 51.66421285 -36.82366767 51.87124248 -44.83496094 52.95751953 C-57.28807269 58.59666448 -65.74459407 78.57718243 -71.14746094 90.45751953 C-76.22107101 89.16640904 -80.64527049 87.36115949 -85.27246094 84.89501953 C-92.93563989 80.81408584 -99.4925941 79.76980148 -108.14746094 80.45751953 C-111.37189766 81.25090914 -111.37189766 81.25090914 -113.14746094 83.45751953 C-113.6275341 88.88707942 -112.50452077 93.21890975 -110.52246094 98.20751953 C-110.2561084 98.89910156 -109.98975586 99.59068359 -109.71533203 100.30322266 C-107.34600901 106.29384842 -104.45208391 111.92637754 -101.14746094 117.45751953 C-106.83078637 119.72566537 -112.3645752 121.28779355 -118.33496094 122.58251953 C-124.92080857 124.06241742 -131.39017445 125.78350886 -137.82714844 127.81689453 C-138.48018448 128.02317474 -139.13322052 128.22945496 -139.80604553 128.44198608 C-143.05978741 129.47587411 -146.30661131 130.52844684 -149.54858398 131.59863281 C-150.73750244 131.9826123 -151.9264209 132.3665918 -153.15136719 132.76220703 C-154.7418689 133.28790283 -154.7418689 133.28790283 -156.36450195 133.82421875 C-159.19505479 134.46835017 -160.52437547 134.64852464 -163.14746094 133.45751953 C-164.484375 132.03735352 -164.484375 132.03735352 -165.66308594 130.20361328 C-166.10587891 129.52169922 -166.54867187 128.83978516 -167.00488281 128.13720703 C-167.46443359 127.39728516 -167.92398438 126.65736328 -168.39746094 125.89501953 C-168.87763672 125.13576172 -169.3578125 124.37650391 -169.85253906 123.59423828 C-181.39110661 105.03419888 -188.86709761 86.8757254 -185.75683594 64.66845703 C-182.52989564 53.29142393 -174.165091 46.04630866 -164.41699219 40.23486328 C-159.69820863 37.6696942 -155.23770449 36.14327958 -150.02246094 34.89501953 C-147.00914119 34.16986902 -144.08857655 33.4378914 -141.14746094 32.45751953 C-119.72507315 31.20081738 -99.96260852 36.58075448 -82.14746094 48.45751953 C-81.96570313 47.36697266 -81.96570313 47.36697266 -81.78027344 46.25439453 C-78.71169115 32.6920185 -67.66818612 21.42070201 -56.63574219 13.69970703 C-44.13870222 5.89150937 -30.5423879 2.68291051 -15.90527344 1.66845703 C-2.11839283 0.01403136 -2.11839283 0.01403136 0 0 Z " fill="#FDFDFD" transform="translate(736.1474609375,492.54248046875)"/>
<path d="M0 0 C-1.88090577 8.2331505 -5.56014293 15.25639944 -9.67773438 22.5402832 C-10.74329422 24.4256351 -11.79467817 26.31832387 -12.84375 28.21289062 C-16.47238502 34.73020184 -20.28157519 41.09242514 -24.33398438 47.35717773 C-27.20009418 51.90372502 -29.77175509 56.61224094 -32.375 61.3125 C-35.91396531 67.64843832 -39.47734153 73.89609041 -43.5 79.9375 C-48.24010888 87.11313444 -52.2178306 94.6661186 -56.26245117 102.25 C-59.12406614 107.59852974 -62.04354465 112.82814853 -65.3125 117.9375 C-69.31085631 124.22427726 -72.35981333 130.87015939 -75.43359375 137.640625 C-77 141 -77 141 -78 142 C-80.39300501 142.16074419 -82.76007779 142.25977138 -85.15625 142.31640625 C-85.89137817 142.33718735 -86.62650635 142.35796844 -87.38391113 142.37937927 C-88.95428402 142.42277421 -90.52472384 142.46379933 -92.09521484 142.50268555 C-94.43475096 142.56087705 -96.77398159 142.62640134 -99.11328125 142.69335938 C-102.19398438 142.7797453 -105.27426558 142.84607121 -108.35571289 142.89916992 C-111.48743926 142.9544267 -114.60810719 143.07443729 -117.73608398 143.2355957 C-119.24981565 143.29047507 -120.76356834 143.34477832 -122.27734375 143.3984375 C-122.96578369 143.44654068 -123.65422363 143.49464386 -124.36352539 143.54420471 C-127.19464903 143.61728698 -129.38988491 143.42998791 -131.73553467 141.77685547 C-134.36986402 139.25957869 -136.67532232 136.52039747 -138.6484375 133.453125 C-140.62090023 130.50805067 -142.76639157 127.9112187 -145.1875 125.3125 C-147.86560735 122.33018573 -150.3970947 119.27555025 -152.875 116.125 C-155.7641093 112.46696925 -158.78086191 108.9923556 -161.9375 105.5625 C-165.97582401 101.17435157 -169.77498036 96.65489158 -173.51953125 92.015625 C-176.44968595 88.45329519 -179.46769057 84.97534874 -182.5 81.5 C-187.00725094 76.32978462 -191.42268177 71.10440366 -195.73046875 65.765625 C-197.43700074 63.6860645 -199.16378241 61.64100355 -200.92578125 59.609375 C-201.42577637 59.03010254 -201.92577148 58.45083008 -202.44091797 57.85400391 C-203.41233114 56.73172853 -204.38893984 55.61392153 -205.37158203 54.50146484 C-208.00198616 51.45417369 -209.61074413 48.75348367 -211 45 C-203.53196543 42.97810246 -196.06141946 40.96572042 -188.58837891 38.96240234 C-186.29341891 38.34689463 -183.99878945 37.73015232 -181.70458984 37.11181641 C-160.50019445 31.40637544 -160.50019445 31.40637544 -150 30 C-128.8186023 57.10711892 -128.8186023 57.10711892 -121.12890625 68.8203125 C-117.22805743 74.6465344 -113.10356317 80.31555594 -109 86 C-105.93819347 83.39145184 -104.40432271 80.18121028 -102.6875 76.625 C-102.35411621 75.944375 -102.02073242 75.26375 -101.67724609 74.5625 C-100.90062524 72.97307289 -100.12711367 71.38212446 -99.35595703 69.79003906 C-97.82137653 66.63246146 -96.26780409 63.4845146 -94.71484375 60.3359375 C-93.51554155 57.89193496 -92.32001883 55.4460991 -91.125 53 C-90.82182861 52.38177368 -90.51865723 51.76354736 -90.20629883 51.12658691 C-86.95015758 44.46857805 -83.85669478 37.82063618 -81.19140625 30.8984375 C-80.55017822 29.24521484 -80.55017822 29.24521484 -79.89599609 27.55859375 C-79.11149318 25.49194366 -78.35602399 23.41395029 -77.63525391 21.32421875 C-75.13313459 14.71945282 -75.13313459 14.71945282 -72.07470703 12.77758789 C-69.72135287 11.94593778 -67.45581438 11.44128858 -65 11 C-63.79089966 10.71334473 -63.79089966 10.71334473 -62.55737305 10.42089844 C-59.88064441 9.78864515 -57.19602106 9.23146244 -54.5 8.6875 C-53.49259766 8.48165283 -52.48519531 8.27580566 -51.44726562 8.0637207 C-42.87868359 6.33550085 -34.29310625 4.69257705 -25.69897461 3.09658813 C-24.24496059 2.82608938 -22.79133741 2.55348034 -21.33813477 2.27865601 C-7.14513942 -0.39592912 -7.14513942 -0.39592912 0 0 Z " fill="#FDFDFD" transform="translate(795,592)"/>
<path d="M0 0 C0.98484375 -0.01160156 1.9696875 -0.02320313 2.984375 -0.03515625 C11.76813605 -0.00002121 18.39549301 1.8648629 25.375 7.375 C27.27347467 9.46207405 28.89947786 11.67916437 30.5 14 C30.93304443 14.62100586 31.36608887 15.24201172 31.81225586 15.88183594 C37.3361869 24.01088013 40.0554558 31.53570151 40.375 41.375 C40.4265625 42.60605469 40.478125 43.83710937 40.53125 45.10546875 C40.97495234 60.36513162 38.3392798 73.77910688 27.703125 85.203125 C19.96430757 92.42255871 9.50097138 98.29638869 -1.25 98.875 C-6.32378665 98.57970025 -10.22710313 96.82948373 -14.625 94.375 C-15.65367187 93.81167969 -16.68234375 93.24835938 -17.7421875 92.66796875 C-30.55816027 85.23943751 -40.4207851 74.30224535 -50.04223633 63.19848633 C-52.78184665 60.04220845 -55.60434002 56.96092525 -58.4140625 53.8671875 C-60.8820336 51.08526955 -63.25660884 48.24199982 -65.625 45.375 C-64.82835937 44.385 -64.03171875 43.395 -63.2109375 42.375 C-62.14045825 41.04180054 -61.07015752 39.70845772 -60 38.375 C-59.443125 37.68237061 -58.88625 36.98974121 -58.3125 36.27612305 C-55.66183401 32.96784612 -53.06522274 29.65557414 -50.625 26.1875 C-37.97511034 9.34549575 -21.39182912 -0.25399269 0 0 Z " fill="#010101" transform="translate(421.625,592.625)"/>
<path d="M0 0 C19.02978165 8.03379933 35.90610622 26.85278256 48.375 43 C39.55620167 50.57361917 30.6068864 57.93452961 21.375 65 C20.74239258 65.4856543 20.10978516 65.97130859 19.45800781 66.47167969 C-3.30288884 83.85293527 -3.30288884 83.85293527 -17.10546875 83.4296875 C-28.63336171 81.46369025 -35.96716436 73.5410036 -42.44140625 64.44921875 C-51.46851958 50.46263111 -49.498424 33.75190279 -46.17285156 18.10253906 C-44.16007681 10.37793294 -39.15869732 4.41546668 -32.625 0 C-23.86603551 -5.03172064 -9.25075596 -3.05274947 0 0 Z " fill="#010101" transform="translate(1273.625,592)"/>
<path d="M0 0 C-3.64455749 10.21580509 -12.00869305 20.24074858 -21.1875 26 C-24.00847008 27.00301158 -26.03321935 27.26177476 -29 27 C-29.33 26.01 -29.66 25.02 -30 24 C-25.15356301 14.93926997 -11.06967565 0 0 0 Z " fill="#090909" transform="translate(1826,779)"/>
</svg>
