<?xml version="1.0" encoding="UTF-8"?>
<svg version="1.1" xmlns="http://www.w3.org/2000/svg" width="1341" height="1006">
<path d="M0 0 C442.53 0 885.06 0 1341 0 C1341 331.98 1341 663.96 1341 1006 C898.47 1006 455.94 1006 0 1006 C0 674.02 0 342.04 0 0 Z " fill="#FEFEFE" transform="translate(0,0)"/>
<path d="M0 0 C2.20124165 0.05583787 4.40015593 0.06384315 6.60205078 0.07275391 C29.13234069 0.4169244 50.59573806 9.72384669 67.09814453 25.05322266 C67.88576172 25.78412109 68.67337891 26.51501953 69.48486328 27.26806641 C71.76372368 29.46954614 73.94303891 31.73080755 76.09814453 34.05322266 C77.0978125 35.10316406 77.0978125 35.10316406 78.11767578 36.17431641 C100.66089275 61.83000909 106.39335062 102.44934979 106.09814453 135.05322266 C96.87805742 137.46841405 87.59165968 139.47787424 78.26812744 141.44113159 C57.75201788 145.76540557 37.30302556 150.36701611 16.86987305 155.06665039 C14.70898841 155.56089004 12.54809992 156.05511283 10.38720703 156.54931641 C9.42307388 156.77292847 8.45894073 156.99654053 7.46559143 157.22692871 C0.7141603 158.7677972 -6.06096742 159.98025517 -12.90185547 161.05322266 C-12.97977829 160.21475296 -13.05770111 159.37628326 -13.13798523 158.5124054 C-15.63217231 123.16912598 -15.63217231 123.16912598 -32.43310547 93.01806641 C-41.4500421 85.84161209 -52.05600455 86.24902294 -63.02685547 87.37353516 C-72.8592518 88.84305091 -77.81393175 93.56900062 -83.90185547 101.05322266 C-86.27806676 104.3194159 -88.50486783 107.67260974 -90.71435547 111.05322266 C-91.31965088 111.97022949 -91.92494629 112.88723633 -92.54858398 113.83203125 C-96.21272544 119.4055593 -99.81003756 125.01845247 -103.33935547 130.67822266 C-103.74025391 131.32025635 -104.14115234 131.96229004 -104.55419922 132.6237793 C-106.37094917 135.54599729 -108.1521605 138.47972281 -109.89404297 141.44775391 C-110.49474609 142.45193359 -111.09544922 143.45611328 -111.71435547 144.49072266 C-112.21580078 145.35568359 -112.71724609 146.22064453 -113.23388672 147.11181641 C-114.90185547 149.05322266 -114.90185547 149.05322266 -117.33935547 150.02197266 C-120.63789132 150.0621987 -121.57402314 149.2095421 -124.08935547 147.11572266 C-138.31661568 136.4932705 -155.22692735 131.42138836 -172.90185547 133.05322266 C-177.40156123 134.3906169 -180.24498162 136.06791188 -182.90185547 140.05322266 C-185.09973893 159.10154595 -171.93706822 179.82266816 -161.90185547 195.05322266 C-164.0678377 197.21920489 -164.90138922 197.48351165 -167.78710938 198.17895508 C-168.99333199 198.47557289 -168.99333199 198.47557289 -170.22392273 198.77818298 C-171.53789787 199.09028465 -171.53789787 199.09028465 -172.87841797 199.40869141 C-173.78763504 199.63105972 -174.69685211 199.85342804 -175.63362122 200.08253479 C-177.58400659 200.55943799 -179.53508944 201.03349589 -181.48678589 201.50500488 C-186.55029781 202.73040964 -191.60716142 203.98248662 -196.66357422 205.23681641 C-198.14776604 205.60481857 -198.14776604 205.60481857 -199.66194153 205.98025513 C-216.17564879 210.09441291 -232.36558686 215.07372534 -248.46826172 220.57275391 C-258.79079048 224.05322266 -258.79079048 224.05322266 -263.90185547 224.05322266 C-265.68188477 222.19580078 -265.68188477 222.19580078 -267.47607422 219.58447266 C-268.13937744 218.62855225 -268.80268066 217.67263184 -269.48608398 216.68774414 C-270.18016357 215.65335205 -270.87424316 214.61895996 -271.58935547 213.55322266 C-272.30470459 212.50400635 -273.02005371 211.45479004 -273.75708008 210.3737793 C-279.29175025 202.16750243 -284.33536677 193.82851164 -288.90185547 185.05322266 C-289.54077272 183.86550434 -290.18009229 182.67800236 -290.81982422 181.49072266 C-302.08041781 159.97794683 -310.01335071 131.00954804 -303.27685547 106.86572266 C-295.73832334 86.41152359 -280.16746002 73.33300328 -261.30810547 63.73291016 C-255.53562232 61.22227536 -249.44597183 59.87558024 -243.31640625 58.53442383 C-239.47560844 57.69263615 -235.79089148 56.69687992 -232.05810547 55.45556641 C-226.62891812 53.79983093 -221.54881752 53.59523586 -215.90185547 53.67822266 C-214.9021875 53.68692383 -213.90251953 53.695625 -212.87255859 53.70458984 C-185.22981039 54.24194091 -152.50990205 63.04651717 -130.90185547 81.05322266 C-130.71623047 79.85697266 -130.53060547 78.66072266 -130.33935547 77.42822266 C-124.8458058 53.08874563 -104.23516928 34.12399684 -84.47998047 20.67431641 C-66.0810983 9.10532231 -42.19096315 2.86903925 -20.48779297 2.29150391 C-17.79416563 2.14551687 -17.79416563 2.14551687 -14.95263672 1.04541016 C-10.00647298 -0.56320135 -5.15506083 -0.15484065 0 0 Z " fill="#D52E7B" transform="translate(717.90185546875,288.94677734375)"/>
<path d="M0 0 C-0.63039473 11.13697361 -6.7391086 20.64933496 -12 30.25 C-12.84485962 31.79820435 -12.84485962 31.79820435 -13.70678711 33.37768555 C-15.46435024 36.58894205 -17.23036028 39.79538444 -19 43 C-19.82975342 44.50457764 -19.82975342 44.50457764 -20.67626953 46.03955078 C-26.63684618 56.81259657 -32.79243575 67.37776367 -39.47412109 77.71899414 C-44.15718862 85.05816433 -48.24746207 92.68402747 -52.34887695 100.35888672 C-57.60563763 110.18471128 -63.0528211 119.79147023 -69.41967773 128.94506836 C-78.72385528 142.39532462 -85.9695325 157.23982666 -93.45703125 171.75390625 C-93.80233887 172.41712891 -94.14764648 173.08035156 -94.50341797 173.76367188 C-95.34317187 175.38084563 -96.1704354 177.00449071 -96.99609375 178.62890625 C-98.76863238 181.61077924 -100.66366257 184.24830101 -102.75 187.01171875 C-107.44421917 193.37893235 -111.01351872 200.21135705 -114.5625 207.25 C-115.18866336 208.4704576 -115.81561517 209.69051101 -116.44335938 210.91015625 C-120.84593755 219.50687101 -124.9667817 228.22478403 -129 237 C-136.48691255 237.26637073 -143.97399768 237.52738124 -151.46130848 237.78230286 C-154.94133713 237.90094046 -158.42129387 238.02114609 -161.90112305 238.14550781 C-169.95015368 238.43221711 -177.99913561 238.68671981 -186.05059814 238.89517212 C-188.68698744 238.96514907 -191.32319602 239.0422965 -193.95916748 239.1265564 C-197.69538292 239.24036839 -201.43067677 239.3185354 -205.16796875 239.38671875 C-206.28532913 239.42639771 -207.40268951 239.46607666 -208.5539093 239.50695801 C-217.04236885 239.60117734 -217.04236885 239.60117734 -220.38037109 236.58886719 C-222.70829778 233.53966398 -224.28439966 230.42737974 -226 227 C-227.73145434 224.63965886 -229.63156178 222.44839816 -231.5625 220.25 C-232.03373291 219.69586426 -232.50496582 219.14172852 -232.99047852 218.57080078 C-235.51128635 215.62079702 -238.11728394 212.84973715 -240.9375 210.1875 C-244.69461596 206.56046749 -247.67747438 202.51390884 -250.75 198.3125 C-255.08529173 192.38549368 -259.65307915 186.91234076 -264.70556641 181.58764648 C-268.62373446 177.45251776 -272.22176621 173.12270995 -275.7890625 168.6796875 C-278.1093495 165.86746685 -280.53071134 163.18202737 -283 160.5 C-287.11255781 156.03148665 -290.96888182 151.41268873 -294.78125 146.6875 C-296.97275268 144.0330038 -299.24247683 141.47999115 -301.5625 138.9375 C-305.14472536 135.00322836 -308.48115126 130.93938077 -311.7734375 126.76171875 C-314.42810306 123.469002 -317.17451038 120.26436826 -319.9375 117.0625 C-323.49504791 112.93965673 -327.01072083 108.79558015 -330.4375 104.5625 C-334.65379984 99.35776356 -339.04237455 94.3136515 -343.48413086 89.30102539 C-352 79.59852941 -352 79.59852941 -352 76 C-323.433501 67.98890303 -323.433501 67.98890303 -310.10668945 64.99365234 C-306.07207999 64.04856331 -302.11799373 62.87023281 -298.15625 61.66015625 C-289.85250559 59.17546015 -281.48744093 57.07811219 -273.03857422 55.14990234 C-270.7065596 54.61503661 -268.37882789 54.06356997 -266.05078125 53.51171875 C-264.5497101 53.16566342 -263.04841604 52.82057324 -261.546875 52.4765625 C-260.86042908 52.31209625 -260.17398315 52.14763 -259.46673584 51.97817993 C-255.68251465 51.1333517 -252.68555159 50.65278093 -249 52 C-247.32177734 53.54370117 -247.32177734 53.54370117 -245.8359375 55.54296875 C-244.99724121 56.64862183 -244.99724121 56.64862183 -244.14160156 57.77661133 C-243.55862305 58.57220459 -242.97564453 59.36779785 -242.375 60.1875 C-241.12802353 61.84146209 -239.88062311 63.49510463 -238.6328125 65.1484375 C-238.01825195 65.97182617 -237.40369141 66.79521484 -236.77050781 67.64355469 C-234.31679416 70.90930816 -231.7875492 74.11180583 -229.25 77.3125 C-228.34974767 78.46053561 -227.44999933 79.60896662 -226.55078125 80.7578125 C-224.95962894 82.78747135 -223.35299803 84.79956526 -221.73046875 86.8046875 C-215.79662934 94.26494898 -210.51115352 102.11977418 -205.25 110.0625 C-204.46989786 111.23958899 -203.68978719 112.41667233 -202.90966797 113.59375 C-202.52387573 114.17586243 -202.1380835 114.75797485 -201.74060059 115.35772705 C-197.22722156 122.16605657 -192.69255895 128.95763408 -188.0625 135.6875 C-187.48983398 136.53642822 -186.91716797 137.38535645 -186.32714844 138.26000977 C-185.79766602 139.02369873 -185.26818359 139.7873877 -184.72265625 140.57421875 C-184.26640869 141.24026123 -183.81016113 141.90630371 -183.34008789 142.5925293 C-182.89785889 143.05699463 -182.45562988 143.52145996 -182 144 C-181.01 144 -180.02 144 -179 144 C-170.43730276 128.58365711 -162.5320893 113.04861276 -155.21484375 96.99609375 C-152.0907236 90.14848593 -148.80429996 83.38697662 -145.5 76.625 C-139.58467417 64.46646772 -134.1826661 52.11905981 -128.875 39.6875 C-128.37846924 38.56005371 -127.88193848 37.43260742 -127.37036133 36.27099609 C-125.96455499 33.04822612 -125.96455499 33.04822612 -124.97924805 29.81103516 C-123.50740371 25.58214274 -122.48418804 22.78375002 -118.41650391 20.63574219 C-114.89431078 19.600671 -111.43778018 18.95572351 -107.8125 18.375 C-106.42231504 18.11621973 -105.032927 17.85312864 -103.64428711 17.58618164 C-100.52849408 16.9978417 -97.40891003 16.44280217 -94.28320312 15.90966797 C-88.48644921 14.9198946 -82.70480561 13.85227428 -76.921875 12.78515625 C-67.29566574 11.01691826 -57.66134155 9.29857856 -48.0224762 7.60084534 C-41.56534837 6.46111618 -35.1142639 5.29318569 -28.66796875 4.09375 C-27.50304649 3.8777993 -27.50304649 3.8777993 -26.31459045 3.65748596 C-22.00414075 2.85833348 -22.00414075 2.85833348 -17.69558716 2.04904175 C-15.81355642 1.69340596 -13.9302447 1.34456911 -12.046875 0.99609375 C-11.01401367 0.80200928 -9.98115234 0.6079248 -8.91699219 0.40795898 C-5.90668732 -0.01305034 -3.03553429 -0.07207274 0 0 Z " fill="#D52E7B" transform="translate(822,454)"/>
<path d="M0 0 C0.77230957 0.01933594 1.54461914 0.03867187 2.34033203 0.05859375 C20.5685029 0.55370684 20.5685029 0.55370684 29 4 C26.10669155 5.15732338 24.90070147 4.96964038 21.85302734 4.0378418 C17.78418365 2.94186825 14.08736233 2.72696239 9.9140625 2.76953125 C9.17167328 2.76998947 8.42928406 2.77044769 7.66439819 2.7709198 C6.1097451 2.77391995 4.55509441 2.78173837 3.00048828 2.79418945 C0.61089571 2.81260872 -1.77831212 2.81469772 -4.16796875 2.81445312 C-5.68229504 2.81936308 -7.1966187 2.82518911 -8.7109375 2.83203125 C-9.42752533 2.83314407 -10.14411316 2.8342569 -10.88241577 2.83540344 C-14.22615154 2.57715337 -14.22615154 2.57715337 -17 4 C-20.10042773 4.32446337 -23.2020725 4.51334441 -26.3125 4.71875 C-28.91596752 4.70607799 -28.91596752 4.70607799 -30 6 C-31.99958364 6.04080783 -34.00045254 6.04254356 -36 6 C-36.33 5.34 -36.66 4.68 -37 4 C-32.50579348 2.673661 -27.94251702 2.63500972 -23.2890625 2.37890625 C-19.99362896 2.11576509 -19.99362896 2.11576509 -16.97265625 0.9765625 C-11.47304554 -0.83014273 -5.72588669 -0.17823772 0 0 Z " fill="#C0457D" transform="translate(720,289)"/>
<path d="M0 0 C8.32448255 -0.35733073 16.19378155 -0.24762523 24 3 C24.495 3.99 24.495 3.99 25 5 C23.80375 4.67 22.6075 4.34 21.375 4 C9.81437667 1.4552087 -1.68945618 3.10721114 -13 6 C-13 5.34 -13 4.68 -13 4 C-9.93753253 2.21590198 -7.77920727 1.77119979 -4.25 1.875 C-3.45078125 1.89304687 -2.6515625 1.91109375 -1.828125 1.9296875 C-1.22484375 1.95289063 -0.6215625 1.97609375 0 2 C0 1.34 0 0.68 0 0 Z " fill="#C75086" transform="translate(656,373)"/>
<path d="M0 0 C-1.64742187 0.28423828 -1.64742187 0.28423828 -3.328125 0.57421875 C-7.23172422 1.63446751 -7.23172422 1.63446751 -8.671875 5.08203125 C-9.02765625 6.31308594 -9.3834375 7.54414063 -9.75 8.8125 C-11.10068326 13.32587471 -12.49185036 17.01646822 -15 21 C-15.35613097 22.66194453 -15.69208308 24.328451 -16 26 C-16.66 26.99 -17.32 27.98 -18 29 C-18.66 29 -19.32 29 -20 29 C-17.94113428 22.58851815 -15.65958996 16.30111428 -13.125 10.0625 C-12.79886719 9.21365234 -12.47273437 8.36480469 -12.13671875 7.49023438 C-9.64267355 1.39098376 -9.64267355 1.39098376 -6.38671875 -0.58984375 C-3.87905033 -1.02078513 -2.37188678 -0.87847658 0 0 Z " fill="#C54A82" transform="translate(709,476)"/>
<path d="M0 0 C-6.20129565 2.48991416 -11.92605391 3.43547256 -18.59375 3.7890625 C-20.95013499 3.73591647 -20.95013499 3.73591647 -22 5 C-23.85287502 5.07226502 -25.70833878 5.0838122 -27.5625 5.0625 C-28.57441406 5.05347656 -29.58632813 5.04445313 -30.62890625 5.03515625 C-31.41136719 5.02355469 -32.19382812 5.01195312 -33 5 C-27.89471579 2.1066515 -22.2211098 1.70783752 -16.5 0.8125 C-15.35917969 0.62236328 -14.21835937 0.43222656 -13.04296875 0.23632812 C-11.94597656 0.06166016 -10.84898437 -0.11300781 -9.71875 -0.29296875 C-8.71779297 -0.4530542 -7.71683594 -0.61313965 -6.68554688 -0.77807617 C-4.12931008 -0.98931428 -2.41402484 -0.79977131 0 0 Z " fill="#C54D85" transform="translate(805,458)"/>
<path d="M0 0 C4.25622384 0.76003997 6.71301511 2.95432478 10 5.625 C12.03734305 7.02567335 13.58566636 7.56886899 16 8 C16.103125 7.401875 16.20625 6.80375 16.3125 6.1875 C17.09824033 3.68741714 17.96918853 2.62464918 20 1 C20.66 1 21.32 1 22 1 C20.70308182 4.89075454 19.33223231 7.52462743 16 10 C11.38119575 10.25660024 8.27622362 7.13406425 4.8671875 4.375 C2.94224971 2.80969136 2.94224971 2.80969136 0 2 C0 1.34 0 0.68 0 0 Z " fill="#C54A81" transform="translate(585,429)"/>
<path d="M0 0 C0.66 0.33 1.32 0.66 2 1 C-1.96 8.26 -5.92 15.52 -10 23 C-10.66 23 -11.32 23 -12 23 C-10.72014604 18.34598561 -8.74604981 14.84836071 -6.0234375 10.9296875 C-4.68763672 8.77508838 -4.68763672 8.77508838 -5 5 C-4.01 5 -3.02 5 -2 5 C-1.34 3.35 -0.68 1.7 0 0 Z " fill="#C54881" transform="translate(775,540)"/>
<path d="M0 0 C-2.32561229 1.02326941 -4.65647075 2.01954388 -7 3 C-7.9075 3.391875 -8.815 3.78375 -9.75 4.1875 C-14.49369 5.3734225 -19.1360472 5.15578496 -24 5 C-24 4.67 -24 4.34 -24 4 C-22.80761719 3.72285156 -21.61523438 3.44570313 -20.38671875 3.16015625 C-18.82029523 2.79434477 -17.25388993 2.42845529 -15.6875 2.0625 C-14.90181641 1.88009766 -14.11613281 1.69769531 -13.30664062 1.50976562 C-12.54931641 1.33251953 -11.79199219 1.15527344 -11.01171875 0.97265625 C-10.31522217 0.81031494 -9.61872559 0.64797363 -8.90112305 0.48071289 C-3.14274594 -0.97533495 -3.14274594 -0.97533495 0 0 Z " fill="#C5457F" transform="translate(523,518)"/>
<path d="M0 0 C-0.33 0.99 -0.66 1.98 -1 3 C-1.804375 3.12375 -2.60875 3.2475 -3.4375 3.375 C-4.7059375 3.684375 -4.7059375 3.684375 -6 4 C-6.33 4.66 -6.66 5.32 -7 6 C-6.01 6 -5.02 6 -4 6 C-3.67 7.98 -3.34 9.96 -3 12 C-6.39417765 8.87378374 -8.6062718 6.43458973 -10 2 C-8.7090864 1.66376204 -7.41723903 1.33110751 -6.125 1 C-5.40570313 0.814375 -4.68640625 0.62875 -3.9453125 0.4375 C-2 0 -2 0 0 0 Z " fill="#C4427D" transform="translate(480,528)"/>
<path d="M0 0 C0.598125 0.309375 1.19625 0.61875 1.8125 0.9375 C4.08956772 2.10209704 4.08956772 2.10209704 7 3 C8.12411056 5.33814997 9.09409458 7.58255576 10 10 C10.391875 10.969375 10.78375 11.93875 11.1875 12.9375 C11.455625 13.618125 11.72375 14.29875 12 15 C7.47619711 10.75036698 3.61682339 6.04479113 0 1 C0 0.67 0 0.34 0 0 Z " fill="#C7427C" transform="translate(589,671)"/>
<path d="M0 0 C0.66 0 1.32 0 2 0 C1.59524765 7.15062486 -0.82523652 12.62704304 -4 19 C-5.31933105 15.3843649 -4.66876124 13.51733119 -3.125 10.0625 C-1.63906832 6.70096925 -0.61046173 3.63029899 0 0 Z " fill="#C3407B" transform="translate(820,454)"/>
<path d="M0 0 C2.95936349 3.56219679 4.81027576 7.45818496 6.75 11.625 C7.07871094 12.305625 7.40742187 12.98625 7.74609375 13.6875 C8.56201306 15.42950494 9.28847373 17.21281342 10 19 C9.67 19.66 9.34 20.32 9 21 C8.16151196 19.54462432 7.32936066 18.08559627 6.5 16.625 C6.0359375 15.81289063 5.571875 15.00078125 5.09375 14.1640625 C4 12 4 12 4 10 C3.34 10 2.68 10 2 10 C0.39644899 6.49223216 -0.22036864 3.85645121 0 0 Z " fill="#C3477E" transform="translate(537,450)"/>
<path d="M0 0 C0.33 0 0.66 0 1 0 C1 5.28 1 10.56 1 16 C-3.85213172 17.61737724 -6.18201244 18.22942798 -11 18 C-10.0409375 17.5359375 -10.0409375 17.5359375 -9.0625 17.0625 C-7.06389179 16.1654837 -7.06389179 16.1654837 -6 15 C-4.02 15 -2.04 15 0 15 C0 10.05 0 5.1 0 0 Z " fill="#C0427B" transform="translate(823,408)"/>
<path d="M0 0 C-0.33 0.66 -0.66 1.32 -1 2 C-3.64 2 -6.28 2 -9 2 C-9 2.66 -9 3.32 -9 4 C-12.3 4 -15.6 4 -19 4 C-12.89367892 0.94683946 -6.85129898 -0.35134867 0 0 Z " fill="#C64B84" transform="translate(565,507)"/>
<path d="M0 0 C0.66 0.33 1.32 0.66 2 1 C-4.92938497 9.81548975 -4.92938497 9.81548975 -11 11 C-7.6189962 6.86378916 -4.33409466 3.18683431 0 0 Z " fill="#C6407D" transform="translate(628,313)"/>
<path d="M0 0 C0.66 0 1.32 0 2 0 C0.45454854 5.47932789 -2.15543212 10.11429181 -5 15 C-5.5859375 13.12109375 -5.5859375 13.12109375 -6 11 C-5.03542166 9.64082143 -4.03145371 8.30915279 -3 7 C-2.28566879 4.35065178 -2.28566879 4.35065178 -2 2 C-1.34 2 -0.68 2 0 2 C0 1.34 0 0.68 0 0 Z " fill="#C4467E" transform="translate(805,487)"/>
<path d="M0 0 C0.66 0.33 1.32 0.66 2 1 C1.09674384 2.32176485 0.17682097 3.63215066 -0.75 4.9375 C-1.26046875 5.66839844 -1.7709375 6.39929688 -2.296875 7.15234375 C-4.19177915 9.20805399 -5.27425729 9.62669176 -8 10 C-6.34908222 5.70761377 -3.26245434 3.1206085 0 0 Z " fill="#FEE7F8" transform="translate(643,379)"/>
<path d="M0 0 C5.87024368 2.67865488 10.76646153 5.06087179 15 10 C11.9168649 8.80100302 8.93720508 7.52299523 6 6 C6 5.34 6 4.68 6 4 C4.35 3.67 2.7 3.34 1 3 C0.67 2.01 0.34 1.02 0 0 Z " fill="#C64B82" transform="translate(569,359)"/>
<path d="M0 0 C0.66 0.33 1.32 0.66 2 1 C1.690625 1.680625 1.38125 2.36125 1.0625 3.0625 C-0.13370649 6.36965912 -0.59005397 9.51545878 -1 13 C-1.99 13.33 -2.98 13.66 -4 14 C-3.52372025 12.04096255 -3.04388577 10.08278903 -2.5625 8.125 C-2.29566406 7.03445313 -2.02882813 5.94390625 -1.75390625 4.8203125 C-1 2 -1 2 0 0 Z " fill="#C64781" transform="translate(418,388)"/>
<path d="M0 0 C-0.33 0.66 -0.66 1.32 -1 2 C-5.72780763 3.49713908 -9.14396816 4.51750995 -14 3 C-9.12941325 0.48073099 -5.50946709 -0.10395221 0 0 Z " fill="#C54681" transform="translate(670,297)"/>
<path d="M0 0 C0.99 0.33 1.98 0.66 3 1 C3 1.66 3 2.32 3 3 C4.32 3.33 5.64 3.66 7 4 C7 4.99 7 5.98 7 7 C7.66 7 8.32 7 9 7 C9.33 8.65 9.66 10.3 10 12 C6.40459445 8.50732032 3.12221448 4.92506963 0 1 C0 0.67 0 0.34 0 0 Z " fill="#C4437D" transform="translate(488,553)"/>
<path d="M0 0 C-0.33 0.99 -0.66 1.98 -1 3 C-4.96 3 -8.92 3 -13 3 C-8.29785627 0.64892813 -5.22704461 0 0 0 Z " fill="#C94C83" transform="translate(753,466)"/>
<path d="M0 0 C0.66 0.33 1.32 0.66 2 1 C-1.33333333 4.33333333 -4.66666667 7.66666667 -8 11 C-8 7 -8 7 -6.25 5.078125 C-5.5075 4.47484375 -4.765 3.8715625 -4 3.25 C-3.2575 2.63640625 -2.515 2.0228125 -1.75 1.390625 C-1.1725 0.93171875 -0.595 0.4728125 0 0 Z " fill="#C4437D" transform="translate(641,379)"/>
<path d="M0 0 C0.99 0 1.98 0 3 0 C3 0.99 3 1.98 3 3 C3.99 3 4.98 3 6 3 C6.66 5.31 7.32 7.62 8 10 C6.33333333 8.33333333 4.66666667 6.66666667 3 5 C2.401875 4.443125 1.80375 3.88625 1.1875 3.3125 C0 2 0 2 0 0 Z " fill="#C5407C" transform="translate(528,600)"/>
<path d="M0 0 C-9.41002278 3.44419134 -9.41002278 3.44419134 -14 3 C-14 2.34 -14 1.68 -14 1 C-12.41913952 0.63495397 -10.83516093 0.28339494 -9.25 -0.0625 C-8.36828125 -0.25972656 -7.4865625 -0.45695312 -6.578125 -0.66015625 C-4.01320972 -0.99825872 -2.42908361 -0.81158635 0 0 Z " fill="#C23F7C" transform="translate(805,458)"/>
<path d="M0 0 C1.47118907 3.82509158 0.45442741 6.28312995 -1 10 C-1.33 10.66 -1.66 11.32 -2 12 C-2.66 12 -3.32 12 -4 12 C-2.66666667 8 -1.33333333 4 0 0 Z " fill="#F9D6ED" transform="translate(821,459)"/>
<path d="M0 0 C1.13643966 3.40931897 0.86747764 4.00335456 -0.4375 7.1875 C-0.72496094 7.90292969 -1.01242187 8.61835937 -1.30859375 9.35546875 C-1.53675781 9.89816406 -1.76492188 10.44085937 -2 11 C-2.66 11 -3.32 11 -4 11 C-3.52269162 9.5410574 -3.04308958 8.08286504 -2.5625 6.625 C-2.29566406 5.81289063 -2.02882813 5.00078125 -1.75390625 4.1640625 C-1 2 -1 2 0 0 Z " fill="#C44880" transform="translate(683,517)"/>
<path d="M0 0 C0.95465783 2.16967689 1.14401212 3.56328793 0.3984375 5.82421875 C-0.35870385 7.5684743 -1.17609198 9.28627131 -2 11 C-2.66 11 -3.32 11 -4 11 C-3.52269162 9.5410574 -3.04308958 8.08286504 -2.5625 6.625 C-2.29566406 5.81289063 -2.02882813 5.00078125 -1.75390625 4.1640625 C-1 2 -1 2 0 0 Z " fill="#C74B83" transform="translate(688,505)"/>
<path d="M0 0 C-3.85756507 2.15305957 -6.55129785 3.39253254 -11 3 C-7.18178484 -0.02823961 -4.81391924 -1.49397494 0 0 Z " fill="#C4417B" transform="translate(465,352)"/>
<path d="M0 0 C0.625 1.8125 0.625 1.8125 1 4 C0.01 5.485 0.01 5.485 -1 7 C-1.66 7 -2.32 7 -3 7 C-3.33 7.99 -3.66 8.98 -4 10 C-4.33 9.34 -4.66 8.68 -5 8 C-4.00390625 6.0546875 -4.00390625 6.0546875 -2.5625 3.875 C-2.08941406 3.15054687 -1.61632812 2.42609375 -1.12890625 1.6796875 C-0.75636719 1.12539063 -0.38382813 0.57109375 0 0 Z " fill="#C4427E" transform="translate(600,341)"/>
<path d="M0 0 C0.66 0 1.32 0 2 0 C2 0.66 2 1.32 2 2 C3.32 2.33 4.64 2.66 6 3 C6.33 4.65 6.66 6.3 7 8 C1.125 3.375 1.125 3.375 0 0 Z " fill="#C4447E" transform="translate(576,657)"/>
<path d="M0 0 C0.99 0.99 1.98 1.98 3 3 C0.23776722 5.76223278 -2.20706617 5.57856291 -6 6 C-5.67 5.34 -5.34 4.68 -5 4 C-4.34 3.855625 -3.68 3.71125 -3 3.5625 C-2.01 3.2840625 -2.01 3.2840625 -1 3 C-0.67 2.01 -0.34 1.02 0 0 Z " fill="#BD457B" transform="translate(553,481)"/>
<path d="M0 0 C0.99 0.66 1.98 1.32 3 2 C1.35 4.64 -0.3 7.28 -2 10 C-3 8 -3 8 -2.44140625 6.0546875 C-2.15136719 5.33539063 -1.86132812 4.61609375 -1.5625 3.875 C-1.27503906 3.15054687 -0.98757813 2.42609375 -0.69140625 1.6796875 C-0.46324219 1.12539063 -0.23507812 0.57109375 0 0 Z " fill="#C74881" transform="translate(610,420)"/>
<path d="M0 0 C2.64752004 2.57784846 4.94432065 4.91648098 7 8 C5.35 7.67 3.7 7.34 2 7 C1.34 4.69 0.68 2.38 0 0 Z " fill="#C4417D" transform="translate(791,321)"/>
<path d="M0 0 C-0.33 0.99 -0.66 1.98 -1 3 C-2.98 3 -4.96 3 -7 3 C-7.33 2.34 -7.66 1.68 -8 1 C-5.10765685 0.17361624 -3.11257569 0 0 0 Z " fill="#CD4F88" transform="translate(691,292)"/>
<path d="M0 0 C-0.33 0.99 -0.66 1.98 -1 3 C-3.97 3 -6.94 3 -10 3 C-6.48579734 1.24289867 -3.89581553 0 0 0 Z " fill="#C95289" transform="translate(480,528)"/>
</svg>
