<?xml version="1.0" encoding="UTF-8"?>
<svg version="1.1" xmlns="http://www.w3.org/2000/svg" width="2160" height="1620">
<path d="M0 0 C712.8 0 1425.6 0 2160 0 C2160 534.6 2160 1069.2 2160 1620 C1447.2 1620 734.4 1620 0 1620 C0 1085.4 0 550.8 0 0 Z " fill="#FEFEFE" transform="translate(0,0)"/>
<path d="M0 0 C8.71844003 -0.02312611 17.43686956 -0.04091646 26.15533352 -0.05181217 C30.20325742 -0.05704041 34.25116041 -0.06413699 38.29907227 -0.07543945 C42.20235971 -0.08627043 46.10562699 -0.09227728 50.0089283 -0.09487724 C51.50133647 -0.09673111 52.99374348 -0.100351 54.48614311 -0.10573006 C56.56948139 -0.11294331 58.65273531 -0.11399083 60.73608398 -0.11352539 C61.92411118 -0.115746 63.11213837 -0.11796661 64.33616638 -0.12025452 C67 0 67 0 68 1 C68.09527037 2.34072817 68.1218877 3.68642503 68.12025452 5.03053284 C68.12231651 6.33258163 68.12231651 6.33258163 68.12442017 7.66093445 C68.11902725 9.10023064 68.11902725 9.10023064 68.11352539 10.56860352 C68.11367142 11.57336731 68.11381744 12.5781311 68.1139679 13.61334229 C68.1132683 16.95188517 68.10547374 20.29037305 68.09765625 23.62890625 C68.09579224 25.93676218 68.09436826 28.24461851 68.09336853 30.55247498 C68.08954204 36.64017826 68.07971065 42.72785786 68.06866455 48.81555176 C68.05845323 55.02221354 68.05387151 61.22887913 68.04882812 67.43554688 C68.0380885 79.62370835 68.02101052 91.81185221 68 104 C69.22759033 102.56672363 69.22759033 102.56672363 70.47998047 101.10449219 C71.56737448 99.83527932 72.65477729 98.56607399 73.7421875 97.296875 C74.27996826 96.66894043 74.81774902 96.04100586 75.37182617 95.39404297 C99.31610082 67.44992381 124.86582853 42.69454128 161.66015625 33.67578125 C163.97972664 33.10271479 163.97972664 33.10271479 165.81518555 31.97875977 C177.69752093 26.65567534 197.10698272 30.93866112 209 35 C209.63099609 35.20898926 210.26199219 35.41797852 210.91210938 35.63330078 C225.64716354 40.56592297 241.30224516 46.5902651 253 57 C254.53527344 58.21623047 254.53527344 58.21623047 256.1015625 59.45703125 C271.68028054 71.85812443 281.82484985 87.71035628 284.33178711 107.66186523 C287.39374143 135.32032835 290.85549654 170.02067096 274 194 C273.41992188 194.82757812 272.83984375 195.65515625 272.2421875 196.5078125 C270.56730319 198.7435883 268.80474765 200.86816588 267 203 C265.98486328 204.28777344 265.98486328 204.28777344 264.94921875 205.6015625 C249.50752718 225.07509894 231.93149388 237.27635098 207.07226562 240.79516602 C190.82420904 242.40121214 173.67382039 239.13611578 158.125 234.6875 C156.67456299 234.28035767 156.67456299 234.28035767 155.19482422 233.86499023 C148.46941638 231.82424528 142.84285719 228.88213755 137 225 C136.35240723 224.57017822 135.70481445 224.14035645 135.03759766 223.69750977 C133.24986297 222.47543118 131.49527614 221.21940045 129.75 219.9375 C129.12158203 219.47706299 128.49316406 219.01662598 127.84570312 218.54223633 C121.33505401 213.66656665 115.49207579 208.14836449 109.63452148 202.52099609 C107.90522202 200.9118048 106.12268115 199.38533454 104.31640625 197.86328125 C101.79578824 195.72623555 99.55527406 193.54769811 97.4375 191 C95.35248111 188.50421678 93.1876295 186.15907536 90.88305664 183.8671875 C90.34306534 183.3294873 89.80307404 182.79178711 89.24671936 182.23779297 C88.83530197 181.82932129 88.42388458 181.42084961 88 181 C87.54149658 182.12905762 87.08299316 183.25811523 86.6105957 184.42138672 C84.89065589 188.65366118 83.16544414 192.88377043 81.4387207 197.11328125 C80.69544311 198.93594679 79.95355167 200.7591783 79.21313477 202.58300781 C77.13949829 207.68949495 75.03905161 212.78297411 72.89361572 217.85974121 C72.11930973 219.71424665 71.3794423 221.58305991 70.64599609 223.45410156 C70.26137207 224.35870117 69.87674805 225.26330078 69.48046875 226.1953125 C69.18422607 226.93023926 68.8879834 227.66516602 68.58276367 228.42236328 C64.43418184 232.55750685 55.0832823 231.12345189 49.60684204 231.13894653 C47.84079117 231.13591019 47.84079117 231.13591019 46.0390625 231.1328125 C44.19868912 231.13424759 44.19868912 231.13424759 42.32113647 231.13571167 C39.74094593 231.13638961 37.16075364 231.13456233 34.58056641 231.13037109 C30.61747459 231.12498978 26.65449469 231.13034328 22.69140625 231.13671875 C20.18229142 231.13605844 17.67317665 231.13477826 15.1640625 231.1328125 C13.37979355 231.13584885 13.37979355 231.13584885 11.55947876 231.13894653 C10.46428925 231.13579437 9.36909973 231.13264221 8.24072266 231.12939453 C7.27445953 231.12859894 6.30819641 231.12780334 5.31265259 231.12698364 C3 231 3 231 1 230 C0.98969254 229.01949677 0.97938507 228.03899353 0.96876526 227.02877808 C0.86917345 217.59281384 0.7663387 208.15688922 0.66066074 198.72099113 C0.60648171 193.87488135 0.55328278 189.02876579 0.50268555 184.18261719 C0.44376523 178.55660296 0.38164949 172.93063197 0.31640625 167.3046875 C0.30548447 166.36042908 0.29456268 165.41617065 0.28330994 164.44329834 C0.14202543 152.58246736 -0.09698619 140.7301827 -0.45888329 128.87415695 C-1.16143971 105.71263728 -1.15295037 82.55286172 -1.13037109 59.38232422 C-1.12455537 53.34363464 -1.1280461 47.30498836 -1.13394356 41.2663002 C-1.1375391 36.57393052 -1.1364173 31.88157134 -1.13381577 27.18920135 C-1.13314976 24.95798487 -1.13396351 22.72676743 -1.13629532 20.49555206 C-1.13881777 17.41790667 -1.13499255 14.34033514 -1.12939453 11.26269531 C-1.13141876 10.34775803 -1.13344299 9.43282074 -1.13552856 8.49015808 C-1.11428937 2.22857874 -1.11428937 2.22857874 0 0 Z " fill="#EA027C" transform="translate(242,503)"/>
<path d="M0 0 C1.24486679 -0.0033284 2.48973358 -0.0066568 3.77232361 -0.01008606 C6.38165927 -0.01511692 8.99100129 -0.01749558 11.6003418 -0.01733398 C14.27629966 -0.0188078 16.95180643 -0.02433624 19.62768555 -0.0378418 C23.50184367 -0.05605254 27.37580354 -0.06106402 31.25 -0.0625 C32.45197525 -0.06968552 33.6539505 -0.07687103 34.89234924 -0.08427429 C36.55064003 -0.07965935 36.55064003 -0.07965935 38.24243164 -0.07495117 C39.21741104 -0.07637619 40.19239044 -0.07780121 41.19691467 -0.07926941 C43.52734375 0.16796875 43.52734375 0.16796875 45.52734375 2.16796875 C45.76936639 4.79834483 45.8878968 7.3301077 45.92211914 9.96533203 C45.94940849 11.17613937 45.94940849 11.17613937 45.97724915 12.41140747 C46.03566693 15.10359459 46.08024696 17.79583505 46.125 20.48828125 C46.16368691 22.38176298 46.20328887 24.27522621 46.24375916 26.16867065 C46.34884275 31.19014684 46.4424992 36.21177195 46.5335083 41.23352051 C46.6790481 49.13745114 46.84365034 57.04102329 47.0040226 64.944664 C47.06290697 67.88359324 47.11964403 70.82255829 47.17607117 73.76153564 C47.35930173 83.1443768 47.59061233 92.51965808 47.94567871 101.89767456 C48.85162118 126.06553495 48.64022109 150.24912252 48.5960083 174.42993164 C48.58561327 180.7332322 48.58117671 187.03653701 48.57617188 193.33984375 C48.5655801 205.61589628 48.5486081 217.89193038 48.52734375 230.16796875 C42.50381694 230.60477609 36.47967759 231.03145343 30.45483398 231.44970703 C28.41558611 231.59259343 26.37651312 231.73800352 24.33764648 231.88623047 C10.37427531 232.8991175 -3.47279535 233.36449634 -17.47265625 233.16796875 C-20.21623469 226.69564926 -22.48647051 220.14116047 -24.5390625 213.42163086 C-25.99537296 208.66014339 -27.5508901 203.94220861 -29.16015625 199.23046875 C-30.95412015 193.90499101 -32.40826659 188.68344245 -33.47265625 183.16796875 C-36.72697158 183.16796875 -38.31760391 185.45301685 -40.72265625 187.54296875 C-46.79762357 192.72733586 -53.16841109 197.34948836 -59.71240234 201.91796875 C-61.4329344 203.13976128 -63.12130362 204.39561483 -64.8046875 205.66796875 C-90.44344125 224.89515824 -121.30083712 235.30927489 -153.47265625 233.16796875 C-154.64828125 233.10738281 -155.82390625 233.04679688 -157.03515625 232.984375 C-170.6387048 231.63402275 -182.43122135 224.0081277 -192.47265625 215.16796875 C-193.56874974 214.27122642 -194.66792044 213.37823708 -195.76953125 212.48828125 C-215.70153052 196.20951974 -230.82765608 176.21506415 -234.47265625 150.16796875 C-234.91091525 144.97099637 -234.90658456 139.76683771 -234.86376953 134.55493164 C-234.84769384 132.2358907 -234.86371005 129.91859781 -234.8828125 127.59960938 C-234.9035491 114.06803356 -232.65525687 101.51725562 -228.28515625 88.66796875 C-227.98472412 87.78069092 -227.68429199 86.89341309 -227.37475586 85.97924805 C-220.30248488 65.81408743 -208.43280884 48.59546057 -188.828125 38.9921875 C-171.15064884 31.09496271 -150.23142077 29.73020674 -131.09765625 29.79296875 C-130.01964752 29.79528 -130.01964752 29.79528 -128.91986084 29.79763794 C-101.99239115 29.93462307 -82.08172048 38.2979832 -61.42333984 55.54785156 C-59.68624727 56.99057325 -57.92861621 58.39625567 -56.1484375 59.78515625 C-50.59504416 64.1642304 -45.94292566 68.70739121 -41.47265625 74.16796875 C-40.56478695 75.22982416 -39.65442334 76.28954976 -38.7421875 77.34765625 C-37.75629461 78.49590849 -36.77061815 79.6443466 -35.78515625 80.79296875 C-35.32109375 81.33147461 -34.85703125 81.86998047 -34.37890625 82.42480469 C-33.93160156 82.95106445 -33.48429687 83.47732422 -33.0234375 84.01953125 C-32.62809814 84.48182129 -32.23275879 84.94411133 -31.82543945 85.42041016 C-29.89931736 87.90862202 -28.21011596 90.54581373 -26.47265625 93.16796875 C-26.46234879 92.03013443 -26.45204132 90.89230011 -26.44142151 89.71998596 C-26.34386488 79.02160464 -26.24114811 68.3232838 -26.13331699 57.62500095 C-26.07804126 52.12428907 -26.02461396 46.62357193 -25.9753418 41.12280273 C-25.92776667 35.81895592 -25.87542662 30.51517599 -25.8197155 25.21140862 C-25.79926079 23.18313184 -25.78055299 21.1548367 -25.76358223 19.12652779 C-25.73960693 16.29595391 -25.70954338 13.4655077 -25.67797852 10.63500977 C-25.67222305 9.78768784 -25.66646759 8.94036591 -25.66053772 8.06736755 C-25.58670841 2.28202091 -25.58670841 2.28202091 -24.47265625 1.16796875 C-16.38672511 -0.06866732 -8.15828239 0.00766942 0 0 Z " fill="#EA037C" transform="translate(1389.47265625,499.83203125)"/>
<path d="M0 0 C7.87366621 -0.04086106 15.71899366 -0.02195588 23.58203125 0.40234375 C24.40652267 0.44436417 25.2310141 0.48638458 26.08049011 0.52967834 C27.79520519 0.61790621 29.50983211 0.7078647 31.22436523 0.79956055 C33.8257847 0.93820803 36.42748741 1.07006822 39.02929688 1.20117188 C40.71356246 1.2886632 42.39780806 1.37654021 44.08203125 1.46484375 C44.84473831 1.50343002 45.60744537 1.5420163 46.39326477 1.58177185 C51.62398984 1.8662175 56.7976288 2.3843748 62 3 C62.117494 27.61770527 61.99768045 52.21046975 61.35571289 76.82104492 C61.14689706 84.85656035 60.94683719 92.89134444 60.8984375 100.9296875 C60.88989746 102.15929199 60.88135742 103.38889648 60.87255859 104.65576172 C61.05336271 109.40031121 61.63583738 113.82689476 64 118 C66.52241456 120.34089931 66.52241456 120.34089931 70 120 C78.81364474 116.85595129 83.647858 108.09727115 88.72167969 100.79199219 C90.43379029 98.39189826 92.29703153 96.13614856 94.1875 93.875 C102.28898252 83.82652169 107.73680407 72.68208574 113.05957031 61.02734375 C115.25517946 56.29413026 117.63463262 51.65009723 120 47 C134.339581 47.4121386 148.55814969 48.4189347 162.82250977 49.89575195 C171.54318837 50.79463253 180.25012884 51.4725255 189 52 C189.73983535 87.00509556 190.14067667 121.98713926 190 157 C202.21 157 214.42 157 227 157 C229.41435573 173.90049011 230.17828293 191.18133724 230.25 208.25 C230.259104 209.30815918 230.26820801 210.36631836 230.27758789 211.45654297 C230.27364014 212.42479004 230.26969238 213.39303711 230.265625 214.390625 C230.26336914 215.23657227 230.26111328 216.08251953 230.25878906 216.95410156 C230 219 230 219 228 221 C226.16500854 221.24050903 226.16500854 221.24050903 223.91748047 221.22705078 C222.65639969 221.22682419 222.65639969 221.22682419 221.36984253 221.22659302 C220.46146637 221.21627045 219.55309021 221.20594788 218.6171875 221.1953125 C217.68778351 221.1924826 216.75837952 221.18965271 215.80081177 221.18673706 C212.8254115 221.17552069 209.85030965 221.1504136 206.875 221.125 C204.86068142 221.11497208 202.84635814 221.1058459 200.83203125 221.09765625 C195.88790544 221.07557661 190.94400335 221.04103693 186 221 C186.00516632 221.60917267 186.01033264 222.21834534 186.01565552 222.84597778 C186.02168289 224.05167923 186.02168289 224.05167923 186.02783203 225.28173828 C186.03299835 226.07653595 186.03816467 226.87133362 186.04348755 227.69021606 C185.60486538 250.98705532 173.84205163 275.59387301 159 293 C158.45085937 293.66257812 157.90171875 294.32515625 157.3359375 295.0078125 C149.62210045 303.51281232 137.6047372 310.81195146 127 315 C125.27330078 315.69609375 125.27330078 315.69609375 123.51171875 316.40625 C113.40355372 320.02125422 103.31578576 320.50787277 92.6875 320.5625 C92.00862732 320.57117096 91.32975464 320.57984192 90.63031006 320.58877563 C76.95687853 320.70994935 65.21444463 317.97317547 54 310 C53.03191406 309.32453125 52.06382813 308.6490625 51.06640625 307.953125 C41.11973856 300.40126011 30.78042352 287.81904932 29 275 C27.37315547 256.32297966 34.92927169 240.69800132 46.25 226.25 C54.42645208 216.76074933 64.08252142 208.60293266 74 201 C75.18113547 200.06528848 76.36211324 199.13037767 77.54296875 198.1953125 C93.92797016 185.38240649 112.2188464 176.755162 131 168 C132.50574407 149.07133741 132.50574407 149.07133741 129 131 C128.57332031 131.76441406 128.14664062 132.52882813 127.70703125 133.31640625 C122.50609679 142.22769808 116.33535457 149.75330498 109.43017578 157.39794922 C107.69075644 159.34640768 106.03707592 161.36048389 104.375 163.375 C96.60842429 172.1314334 87.78923939 177.6658611 77 182 C76.03707031 182.41378906 75.07414062 182.82757812 74.08203125 183.25390625 C67.79970975 185.79696164 62.72032718 186.47312648 56 186 C54.9171875 185.96777344 53.834375 185.93554688 52.71875 185.90234375 C38.51550977 185.28959334 26.70784039 181.44547363 16 172 C13.44561673 168.86392549 11.69249776 165.66154744 10 162 C9.56429688 161.14664063 9.12859375 160.29328125 8.6796875 159.4140625 C2.62529206 147.05149456 -0.0907754 133.54580795 -2 120 C-2.09716309 119.32340332 -2.19432617 118.64680664 -2.29443359 117.94970703 C-3.40496509 108.80825838 -3.23980088 99.5685257 -3.25 90.375 C-3.25350464 88.93347565 -3.25350464 88.93347565 -3.25708008 87.46282959 C-3.28321613 58.28133658 -1.56486836 29.13078773 0 0 Z " fill="#EA037C" transform="translate(1698,550)"/>
<path d="M0 0 C19.65169829 -0.2062088 39.24972047 -0.215725 58.875 0.9375 C59.63873932 0.98106628 60.40247864 1.02463257 61.18936157 1.06951904 C73.80381757 1.80381757 73.80381757 1.80381757 75 3 C76.41848708 15.38578558 76.30873773 27.98864825 76.5625 40.4375 C76.60581289 42.44076187 76.64943064 44.44401717 76.69335938 46.44726562 C76.79908035 51.2981087 76.90070069 56.1490214 77 61 C77.71430176 60.27119629 78.42860352 59.54239258 79.16455078 58.79150391 C84.18804125 53.69626653 89.15758037 48.70122179 94.875 44.375 C95.45813965 43.92608398 96.0412793 43.47716797 96.64208984 43.01464844 C118.95613401 25.98883421 138.46578769 15.84483341 167 18 C192.90656711 21.66256839 217.53058458 36.00797071 233.1875 56.8125 C248.03037325 77.05794257 260.13209611 99.65539726 260.16796875 125.3203125 C260.17206757 126.23572815 260.17616638 127.1511438 260.1803894 128.09429932 C260.19001445 131.10457035 260.18990083 134.11471565 260.1875 137.125 C260.18789276 138.1602179 260.18828552 139.19543579 260.18869019 140.26202393 C260.18021193 159.06969196 259.51908391 177.80681948 258.53515625 196.5859375 C257.92876921 208.3861408 257.47225329 220.19366781 257 232 C222.35 231.505 222.35 231.505 187 231 C186.9690625 222.09 186.9690625 222.09 186.9375 213 C186.928396 211.14117188 186.91929199 209.28234375 186.90991211 207.3671875 C186.90698751 205.8697924 186.90444024 204.37239649 186.90234375 202.875 C186.89722778 202.11703125 186.89211182 201.3590625 186.88684082 200.578125 C186.88626272 196.98927885 187.01093077 193.51327468 187.4934082 189.95483398 C188.01252301 185.902236 188.17783212 181.92532732 188.203125 177.84765625 C188.21004868 177.0822905 188.21697235 176.31692474 188.22410583 175.52836609 C188.24140362 173.03969185 188.24770566 170.55123172 188.25 168.0625 C188.25133942 167.20861694 188.25267883 166.35473389 188.25405884 165.47497559 C188.2499071 153.18183269 187.8030419 140.99305456 186.6875 128.75 C186.62864624 128.07607208 186.56979248 127.40214417 186.50915527 126.70779419 C185.38960735 114.23066664 183.89937878 100.17244208 174.08984375 91.265625 C165.03118178 85.57799949 151.85145148 86.82688997 141.72265625 88.69921875 C128.92715891 91.77793232 120.36742963 98.00189555 111 107 C109.6696875 108.2684375 109.6696875 108.2684375 108.3125 109.5625 C107.549375 110.366875 106.78625 111.17125 106 112 C105.22269531 112.78503906 105.22269531 112.78503906 104.4296875 113.5859375 C99.19488499 119.14938232 95.56140687 125.4784025 91.98193359 132.16650391 C91.04024607 133.92485132 90.07721257 135.67171635 89.11328125 137.41796875 C84.38698238 146.32719591 81.4881841 155.26352412 79 165 C78.70222656 166.10472656 78.40445313 167.20945312 78.09765625 168.34765625 C73.83473336 185.80231068 73.80116402 204.3099836 73.34130859 222.17431641 C73.3098877 223.31175293 73.2784668 224.44918945 73.24609375 225.62109375 C73.21020142 227.14367798 73.21020142 227.14367798 73.17358398 228.69702148 C73 231 73 231 72 232 C69.88862099 232.09948193 67.77387714 232.12799638 65.66015625 232.12939453 C64.66748245 232.13202301 64.66748245 232.13202301 63.65475464 232.13470459 C61.4573101 232.13912217 59.25994542 232.13618547 57.0625 232.1328125 C55.54174789 232.13348557 54.02099588 232.13445561 52.50024414 232.13571167 C49.30907164 232.13718851 46.11792708 232.13503452 42.92675781 232.13037109 C38.8273547 232.1246738 34.72801704 232.12795288 30.62861633 232.13394356 C27.48717756 232.13754954 24.34575442 232.13641042 21.20431519 232.13381577 C19.69237256 232.1331466 18.18042854 232.13397457 16.66848755 232.13629532 C14.55890113 232.13882245 12.44942213 232.13498044 10.33984375 232.12939453 C9.13706787 232.12859894 7.93429199 232.12780334 6.69506836 232.12698364 C4 232 4 232 3 231 C2.84974807 227.84272473 2.76383728 224.70532919 2.71875 221.54589844 C2.70070313 220.55226288 2.68265625 219.55862732 2.6640625 218.53488159 C2.62534247 216.3670397 2.58890818 214.19915609 2.55444336 212.03124237 C2.49971393 208.59139493 2.43910642 205.15169587 2.37695312 201.7119751 C2.24583493 194.39140657 2.12271093 187.07071348 2 179.75 C1.85758284 171.30705451 1.71186483 162.86418084 1.56030273 154.42139435 C1.50113137 151.04885891 1.44671179 147.67626942 1.39257812 144.3036499 C1.23350839 135.01189647 1.03529336 125.77972082 0.20947266 116.52026367 C-0.07024261 113.15487825 -0.09701207 109.85347283 -0.0625 106.4765625 C-0.05476562 105.1875 -0.04703125 103.8984375 -0.0390625 102.5703125 C-0.01309818 99.9479159 0.01294303 97.32552006 0.0390625 94.703125 C0.04679688 93.41148437 0.05453125 92.11984375 0.0625 90.7890625 C0.07410156 89.65162598 0.08570313 88.51418945 0.09765625 87.34228516 C0.06712826 83.54324694 -0.21843253 79.77516648 -0.49560547 75.98681641 C-1.04219733 68.12757249 -1.1462216 60.29963773 -1.1328125 52.421875 C-1.1334886 50.99318424 -1.13446115 49.56449359 -1.13571167 48.13580322 C-1.13716855 45.17792641 -1.13509602 42.22008023 -1.13037109 39.26220703 C-1.12461165 35.47279872 -1.12800419 31.6834603 -1.13394356 27.89405441 C-1.13755052 24.96015898 -1.13641104 22.02628027 -1.13381577 19.09238434 C-1.13315011 17.69373822 -1.13396228 16.29509056 -1.13629532 14.89644623 C-1.1388308 12.95407642 -1.13428207 11.01170125 -1.12939453 9.06933594 C-1.12859894 7.96652283 -1.12780334 6.86370972 -1.12698364 5.72747803 C-1 3 -1 3 0 0 Z " fill="#EA037C" transform="translate(851,502)"/>
<path d="M0 0 C3.59566287 0.00545135 7.1912057 -0.0000254 10.78686523 -0.00634766 C13.07137072 -0.00568836 15.35587613 -0.0044103 17.64038086 -0.00244141 C18.71618912 -0.00446564 19.79199738 -0.00648987 20.90040588 -0.00857544 C21.883311 -0.00542328 22.86621613 -0.00227112 23.87890625 0.00097656 C25.17979942 0.00216995 25.17979942 0.00216995 26.50697327 0.00338745 C28.48022461 0.13037109 28.48022461 0.13037109 29.48022461 1.13037109 C29.7179526 3.43570105 29.88897369 5.71464645 30.01757812 8.02709961 C30.06081396 8.77120779 30.1040498 9.51531597 30.14859581 10.28197289 C30.29069 12.83650553 30.42058438 15.3914034 30.54663086 17.94677734 C30.59160769 18.85017916 30.63658451 19.75358097 30.68292427 20.6843586 C31.55963462 39.0478761 31.62566714 57.40349009 31.57006836 75.78271484 C31.56807324 76.49566601 31.56607812 77.20861718 31.56402254 77.94317293 C31.52819021 90.51084345 31.46521971 103.07837724 31.39080811 115.64587402 C31.34230258 123.86821901 31.30033869 132.09047545 31.2792998 140.31294256 C31.26784208 144.50379101 31.2425797 148.69424936 31.20655239 152.88495529 C31.1829352 156.06690311 31.17867886 159.2488874 31.17138672 162.4309082 C31.1574588 163.57908524 31.14353088 164.72726227 31.12918091 165.91023254 C31.13041458 166.955914 31.13164825 168.00159546 31.13291931 169.07896423 C31.12487479 170.44204916 31.12487479 170.44204916 31.11666775 171.83267117 C31.30717214 174.19503837 31.30717214 174.19503837 32.84568119 175.95389652 C34.48359277 177.39084303 34.48359277 177.39084303 36.98022461 177.00537109 C39.69666916 176.0546155 40.64393381 175.29421647 42.48022461 173.13037109 C43.43147205 171.13234059 43.43147205 171.13234059 44.10522461 169.00537109 C45.39689128 165.21370443 45.39689128 165.21370443 46.48022461 164.13037109 C48.30520002 164.02608508 50.13421792 163.99182746 51.9621582 163.98510742 C53.13362396 163.97872757 54.30508972 163.97234772 55.51205444 163.96577454 C57.42602524 163.9641053 57.42602524 163.9641053 59.37866211 163.96240234 C61.33021713 163.95740974 61.33021713 163.95740974 63.32119751 163.95231628 C66.08026966 163.94631839 68.83931046 163.944477 71.59838867 163.94506836 C75.1349115 163.9451699 78.67123318 163.93152932 82.20770836 163.91429615 C85.57719615 163.90050409 88.94664642 163.90108733 92.31616211 163.89990234 C93.58809418 163.89271683 94.86002625 163.88553131 96.17050171 163.87812805 C97.34827179 163.88120468 98.52604187 163.88428131 99.73950195 163.88745117 C100.77795258 163.88602615 101.8164032 163.88460114 102.88632202 163.88313293 C105.48022461 164.13037109 105.48022461 164.13037109 108.48022461 166.13037109 C110.46604613 182.58432087 101.61657246 203.00491362 92.48022461 216.13037109 C81.85506813 228.99136124 68.69754088 234.07638663 52.48022461 236.13037109 C32.88645852 237.67690594 10.16653836 238.14726371 -6.51977539 226.13037109 C-7.24938477 225.61732422 -7.97899414 225.10427734 -8.73071289 224.57568359 C-22.90705308 214.07648284 -33.90597601 199.97176924 -39.51977539 183.13037109 C-39.66024919 181.23249053 -39.74422687 179.33026719 -39.79882812 177.42797852 C-39.83524918 176.20299149 -39.87167023 174.97800446 -39.90919495 173.71589661 C-39.94506993 172.32671917 -39.98061385 170.93753315 -40.01586914 169.54833984 C-40.05662856 168.05714286 -40.09743749 166.56594723 -40.13829041 165.07475281 C-40.7217988 143.09832754 -41.07311391 121.11571981 -41.44970703 99.13500977 C-41.5377039 94.00150543 -41.6278987 88.86804762 -41.72021484 83.73461914 C-42.60086874 34.74890629 -42.60086874 34.74890629 -42.64086914 15.17333984 C-42.64570816 13.93103104 -42.65054718 12.68872223 -42.65553284 11.4087677 C-42.65383591 10.31424789 -42.65213898 9.21972809 -42.65039062 8.09204102 C-42.64966049 7.16856369 -42.64893036 6.24508636 -42.6481781 5.29362488 C-42.51977539 3.13037109 -42.51977539 3.13037109 -41.51977539 1.13037109 C-27.67697145 0.13666806 -13.87524936 -0.02514859 0 0 Z " fill="#EA037C" transform="translate(1540.519775390625,504.86962890625)"/>
<path d="M0 0 C8.27650985 0.11431089 14.33201352 1.50465603 21.71411133 5.3894043 C22.5159082 5.76194336 23.31770508 6.13448242 24.14379883 6.51831055 C37.35357221 13.07748868 47.82509724 25.55922031 52.71411133 39.3894043 C54.1332653 43.69942746 55.43691868 48.03559647 56.71411133 52.3894043 C57.10598633 53.5650293 57.49786133 54.7406543 57.90161133 55.9519043 C59.87450557 64.29876453 59.77120127 72.85868691 59.71411133 81.3894043 C50.24204483 83.50027945 40.76904448 85.60689942 31.29467773 87.70742798 C27.17358622 88.62122536 23.052795 89.53631743 18.93286133 90.45532227 C15.22402751 91.28260508 11.51433595 92.10592359 7.80395508 92.92623901 C6.41560364 93.23393483 5.02757887 93.54310846 3.63989258 93.85379028 C1.70717003 94.28624046 -0.22683255 94.71295791 -2.16088867 95.1394043 C-3.25143555 95.38174805 -4.34198242 95.6240918 -5.46557617 95.8737793 C-8.28588867 96.3894043 -8.28588867 96.3894043 -12.28588867 96.3894043 C-12.39545898 95.14545898 -12.5050293 93.90151367 -12.61791992 92.61987305 C-14.04813605 72.78308309 -14.04813605 72.78308309 -23.66088867 56.0144043 C-30.25677333 51.9312376 -36.86891742 51.67417106 -44.34838867 52.8894043 C-55.0006348 56.02727525 -61.16483235 71.40626128 -66.28588867 80.3894043 C-68.05006949 83.68254183 -69.73934174 86.98870993 -71.28588867 90.3894043 C-76.35949874 89.09829381 -80.78369822 87.29304426 -85.41088867 84.8269043 C-92.68813053 80.95149676 -99.04681396 79.6009761 -107.28588867 80.3894043 C-110.79066517 81.71925998 -110.79066517 81.71925998 -113.28588867 83.3894043 C-113.58369094 88.8562031 -112.64954858 93.16616329 -110.66088867 98.2019043 C-110.39453613 98.89751465 -110.12818359 99.593125 -109.85375977 100.30981445 C-107.84516282 105.38719923 -105.40359736 110.00620397 -102.38745117 114.5690918 C-101.28588867 116.3894043 -101.28588867 116.3894043 -101.28588867 118.3894043 C-102.3758313 118.63678345 -102.3758313 118.63678345 -103.48779297 118.88916016 C-119.26191137 122.50182673 -134.72877752 126.53388529 -150.09130859 131.63134766 C-151.23962158 132.00525635 -152.38793457 132.37916504 -153.57104492 132.7644043 C-155.08516968 133.27100586 -155.08516968 133.27100586 -156.62988281 133.7878418 C-159.39691673 134.4145512 -160.71175506 134.54048507 -163.28588867 133.3894043 C-164.62280273 131.96923828 -164.62280273 131.96923828 -165.80151367 130.13549805 C-166.24430664 129.45358398 -166.68709961 128.77166992 -167.14331055 128.0690918 C-167.60286133 127.32916992 -168.06241211 126.58924805 -168.53588867 125.8269043 C-169.01606445 125.06764648 -169.49624023 124.30838867 -169.9909668 123.52612305 C-181.44973518 105.09444235 -189.06789003 86.75213375 -185.89526367 64.6706543 C-182.6672728 53.24853276 -174.34237593 46.0013586 -164.55541992 40.16674805 C-159.83663637 37.60157897 -155.37613223 36.07516435 -150.16088867 34.8269043 C-147.14756892 34.10175378 -144.22700428 33.36977617 -141.28588867 32.3894043 C-119.86350089 31.13270215 -100.10103625 36.51263924 -82.28588867 48.3894043 C-82.16342773 47.66108398 -82.0409668 46.93276367 -81.91479492 46.18237305 C-78.70883434 31.94472201 -66.83759523 20.52049241 -55.28588867 12.3894043 C-43.04891866 4.92670668 -28.38759247 2.50858714 -14.28588867 1.3894043 C-11.53785718 -1.3586272 -3.68909381 0.01750354 0 0 Z " fill="#EA037C" transform="translate(736.285888671875,492.610595703125)"/>
<path d="M0 0 C-1.88090577 8.2331505 -5.56014293 15.25639944 -9.67773438 22.5402832 C-10.74329422 24.4256351 -11.79467817 26.31832387 -12.84375 28.21289062 C-16.47238502 34.73020184 -20.28157519 41.09242514 -24.33398438 47.35717773 C-27.20009418 51.90372502 -29.77175509 56.61224094 -32.375 61.3125 C-35.91396531 67.64843832 -39.47734153 73.89609041 -43.5 79.9375 C-48.24010888 87.11313444 -52.2178306 94.6661186 -56.26245117 102.25 C-59.12406614 107.59852974 -62.04354465 112.82814853 -65.3125 117.9375 C-69.31085631 124.22427726 -72.35981333 130.87015939 -75.43359375 137.640625 C-77 141 -77 141 -78 142 C-79.53444378 142.1591205 -81.07588218 142.25148365 -82.6171875 142.31640625 C-84.09711182 142.38093994 -84.09711182 142.38093994 -85.60693359 142.44677734 C-90.18131943 142.60875694 -94.75651526 142.73532231 -99.33203125 142.86083984 C-102.99121591 142.99966674 -106.62954545 143.25076344 -110.28125 143.51953125 C-128.80866665 144.61198249 -128.80866665 144.61198249 -133.86328125 140.41796875 C-136.80415526 137.27345551 -138.8490811 133.71369591 -141 130 C-142.35202442 128.39944168 -143.74473685 126.83177332 -145.1875 125.3125 C-147.86560735 122.33018573 -150.3970947 119.27555025 -152.875 116.125 C-155.7641093 112.46696925 -158.78086191 108.9923556 -161.9375 105.5625 C-165.97582401 101.17435157 -169.77498036 96.65489158 -173.51953125 92.015625 C-176.44968595 88.45329519 -179.46769057 84.97534874 -182.5 81.5 C-187.00725094 76.32978462 -191.42268177 71.10440366 -195.73046875 65.765625 C-197.43700074 63.6860645 -199.16378241 61.64100355 -200.92578125 59.609375 C-201.42577637 59.03010254 -201.92577148 58.45083008 -202.44091797 57.85400391 C-203.41233114 56.73172853 -204.38893984 55.61392153 -205.37158203 54.50146484 C-208.00198616 51.45417369 -209.61074413 48.75348367 -211 45 C-203.53196543 42.97810246 -196.06141946 40.96572042 -188.58837891 38.96240234 C-186.29341891 38.34689463 -183.99878945 37.73015232 -181.70458984 37.11181641 C-160.50019445 31.40637544 -160.50019445 31.40637544 -150 30 C-128.8186023 57.10711892 -128.8186023 57.10711892 -121.12890625 68.8203125 C-117.22805743 74.6465344 -113.10356317 80.31555594 -109 86 C-105.93814271 83.39140859 -104.40450722 80.18116763 -102.6875 76.625 C-102.18851196 75.60732544 -102.18851196 75.60732544 -101.67944336 74.5690918 C-100.90338094 72.98194763 -100.13062129 71.39318619 -99.36035156 69.80322266 C-97.80958934 66.60762828 -96.24423725 63.41933459 -94.6796875 60.23046875 C-88.02003995 46.61512575 -81.60147631 32.94388945 -75.83105469 18.92163086 C-75.55680664 18.28749268 -75.28255859 17.65335449 -75 17 C-74.73509262 16.32785461 -74.47018524 15.65570923 -74.19725037 14.9631958 C-73 13 -73 13 -71.20722961 12.15534973 C-70.12105598 11.9137336 -70.12105598 11.9137336 -69.01293945 11.66723633 C-68.18956589 11.4766716 -67.36619232 11.28610687 -66.51786804 11.08976746 C-65.6212294 10.90158951 -64.72459076 10.71341156 -63.80078125 10.51953125 C-62.86688065 10.31117142 -61.93298004 10.10281158 -60.97077942 9.88813782 C-51.37477692 7.78287684 -41.72487663 5.94292253 -32.05639648 4.20483398 C-29.14189566 3.67927639 -26.23016896 3.13985764 -23.31835938 2.59960938 C-21.43504533 2.25698972 -19.55158693 1.91516241 -17.66796875 1.57421875 C-16.81269089 1.41491379 -15.95741302 1.25560883 -15.07621765 1.09147644 C-9.96696489 0.1858168 -5.18930931 -0.15035528 0 0 Z " fill="#EA037C" transform="translate(795,592)"/>
<path d="M0 0 C0.98484375 -0.01160156 1.9696875 -0.02320313 2.984375 -0.03515625 C11.76813605 -0.00002121 18.39549301 1.8648629 25.375 7.375 C27.27347467 9.46207405 28.89947786 11.67916437 30.5 14 C30.93304443 14.62100586 31.36608887 15.24201172 31.81225586 15.88183594 C37.3361869 24.01088013 40.0554558 31.53570151 40.375 41.375 C40.4265625 42.60605469 40.478125 43.83710937 40.53125 45.10546875 C40.97495234 60.36513162 38.3392798 73.77910688 27.703125 85.203125 C19.96430757 92.42255871 9.50097138 98.29638869 -1.25 98.875 C-6.32278718 98.57975842 -10.22894175 96.83142339 -14.625 94.375 C-15.66527344 93.80007813 -16.70554687 93.22515625 -17.77734375 92.6328125 C-30.04274109 85.47624418 -39.77082767 75.19400021 -48.87890625 64.40625 C-51.7368926 61.08152315 -54.7355692 57.88453362 -57.71972656 54.6730957 C-60.49259819 51.67181703 -63.11076027 48.59581764 -65.625 45.375 C-64.82835937 44.385 -64.03171875 43.395 -63.2109375 42.375 C-62.14045825 41.04180054 -61.07015752 39.70845772 -60 38.375 C-59.443125 37.68237061 -58.88625 36.98974121 -58.3125 36.27612305 C-55.66183401 32.96784612 -53.06522274 29.65557414 -50.625 26.1875 C-37.97511034 9.34549575 -21.39182912 -0.25399269 0 0 Z " fill="#FEFDFE" transform="translate(421.625,592.625)"/>
<path d="M0 0 C19.02978165 8.03379933 35.90610622 26.85278256 48.375 43 C39.55620167 50.57361917 30.6068864 57.93452961 21.375 65 C20.74239258 65.4856543 20.10978516 65.97130859 19.45800781 66.47167969 C-3.30288884 83.85293527 -3.30288884 83.85293527 -17.10546875 83.4296875 C-28.74348224 81.44491001 -35.96984779 73.4551207 -42.54321289 64.34008789 C-47.62246674 56.44460047 -48.6059634 50.34297432 -48.25 41.0625 C-48.24355469 39.89009766 -48.23710938 38.71769531 -48.23046875 37.50976562 C-47.99253271 24.83617243 -46.29379412 12.70666471 -37.04296875 3.41015625 C-27.30851716 -5.09208628 -11.72098387 -3.86792468 0 0 Z " fill="#FEFDFE" transform="translate(1273.625,592)"/>
<path d="M0 0 C-3.64455749 10.21580509 -12.00869305 20.24074858 -21.1875 26 C-24.00847008 27.00301158 -26.03321935 27.26177476 -29 27 C-29.33 26.01 -29.66 25.02 -30 24 C-25.15356301 14.93926997 -11.06967565 0 0 0 Z " fill="#FDF5F9" transform="translate(1826,779)"/>
</svg>
